<?xml version="1.0" encoding="UTF-8"?><svg id="Layer_2" xmlns="http://www.w3.org/2000/svg" viewBox="0 0 174.87 174.87"><defs><style>.cls-1{fill:#f4ecdc;}</style></defs><g id="Layer_1-2"><path class="cls-1" d="m108.99,86.97c0,11.89-9.67,21.56-21.56,21.56s-21.56-9.67-21.56-21.56,9.67-21.56,21.56-21.56,21.56,9.67,21.56,21.56Zm29.84-36.18v73.27c0,8.14-6.62,14.77-14.77,14.77H50.8c-8.14,0-14.77-6.62-14.77-14.77V50.8c0-8.14,6.62-14.77,14.77-14.77h73.27c8.14,0,14.77,6.62,14.77,14.77Zm-20.08,36.18c0-17.3-14.02-31.32-31.32-31.32s-31.32,14.02-31.32,31.32,14.02,31.32,31.32,31.32,31.32-14.02,31.32-31.32Zm56.12-57.36v115.64c0,16.36-13.26,29.61-29.61,29.61H29.62c-16.36,0-29.62-13.26-29.62-29.61V29.61C0,13.26,13.26,0,29.62,0h115.64c16.36,0,29.61,13.26,29.61,29.61Zm-21.39,21.18c0-16.24-13.17-29.41-29.41-29.41H50.8c-16.24,0-29.41,13.17-29.41,29.41v73.27c0,16.24,13.17,29.41,29.41,29.41h73.27c16.24,0,29.41-13.17,29.41-29.41V50.8Z"/></g></svg>