<?xml version="1.0" encoding="utf-8"?>
<!-- Generator: Adobe Illustrator 27.0.0, SVG Export Plug-In . SVG Version: 6.00 Build 0)  -->
<svg version="1.1" id="Layer_1" xmlns="http://www.w3.org/2000/svg" xmlns:xlink="http://www.w3.org/1999/xlink" x="0px" y="0px"
	 viewBox="0 0 464.43 480.46" style="enable-background:new 0 0 464.43 480.46;" xml:space="preserve">
<style type="text/css">
	.st0{fill:#F4ECDC;}
</style>
<g>
	<g>
		<g>
			<path class="st0" d="M227.84,256.17c-1.36,0-2.62-0.94-3.22-2.4c-0.95-2.34-1.58-4.83-1.86-7.42c-2.82-0.15-5.66-0.72-8.45-1.71
				l-2.06,8.04c-0.38,1.47-1.75,2.49-3.33,2.49c-0.27,0-0.54-0.03-0.81-0.09c-0.83-0.19-1.54-0.71-2-1.47
				c-0.5-0.82-0.65-1.8-0.42-2.7l2.37-9.25c-1.04-0.63-2.05-1.32-3.02-2.05c-1.56-1.18-2-2.92-1.14-4.54
				c0.54-1.02,1.79-1.74,3.05-1.74c0.65,0,1.24,0.19,1.72,0.55c1.28,0.97,2.61,1.84,3.93,2.57c0.66,0.36,1.32,0.7,1.98,1
				c0.4,0.18,0.57,0.26,0.78,0.34c0.31,0.12,0.61,0.24,0.92,0.35c1.32,0.47,2.66,0.85,4,1.1c0.35,0.07,0.7,0.13,1.05,0.18l0.47,0.05
				c0.65,0.06,1.3,0.1,1.93,0.11l0.29,0c0.63,0,1.27-0.03,1.89-0.08l0.54-0.06c0.19-0.03,0.39-0.06,0.58-0.09
				c1.13-0.21,2.25-0.51,3.33-0.91c0.2-0.07,0.4-0.15,0.59-0.23c0.26-0.12,0.46-0.21,0.67-0.31c0.51-0.25,1-0.51,1.47-0.79
				c0.51-0.3,1.01-0.63,1.47-0.97l0.27-0.2l0.21-0.17c0.16-0.14,0.33-0.27,0.49-0.42c0.43-0.39,0.85-0.8,1.24-1.23
				c0.18-0.2,0.36-0.41,0.53-0.62l0.14-0.17l0.11-0.15c0.65-0.89,1.2-1.88,1.66-2.92c0.47-1.08,1.6-1.75,2.94-1.75
				c0.61,0,1.22,0.14,1.72,0.41c1.76,0.93,1.99,3,1.31,4.56c-0.68,1.56-1.59,3.03-2.7,4.4c1.65,1.62,3.15,3.47,4.47,5.49
				c0.45,0.69,0.6,1.54,0.43,2.38c-0.2,0.94-0.78,1.77-1.58,2.29c-0.5,0.32-1.08,0.49-1.68,0.49l0,0c-1.17,0-2.31-0.63-2.98-1.65
				c-0.84-1.28-1.42-2.03-2.39-3.1c-0.42-0.46-0.87-0.92-1.36-1.38c-2.42,1.57-5.05,2.69-7.85,3.34c0.23,2.01,0.73,3.94,1.57,5.99
				c0.3,0.73,0.27,1.55-0.09,2.31c-0.42,0.91-1.27,1.66-2.2,1.96C228.49,256.11,228.16,256.17,227.84,256.17z"/>
		</g>
		<g>
			<path class="st0" d="M246.1,243.93c-1.43-2.18-3.1-4.2-5.01-5.97c1.3-1.45,2.38-3.1,3.16-4.87c0.5-1.15,0.38-2.62-0.86-3.28
				c-1.04-0.55-2.74-0.37-3.28,0.86c-0.48,1.1-1.07,2.14-1.77,3.11c-0.02,0.02-0.09,0.12-0.14,0.19c-0.05,0.07-0.13,0.16-0.15,0.18
				c-0.18,0.22-0.37,0.44-0.57,0.65c-0.41,0.45-0.85,0.89-1.31,1.3c-0.22,0.19-0.44,0.38-0.66,0.57c-0.03,0.02-0.1,0.08-0.14,0.12
				c-0.08,0.06-0.16,0.12-0.24,0.18c-0.5,0.36-1.02,0.71-1.55,1.02c-0.5,0.3-1.02,0.58-1.54,0.83c-0.23,0.11-0.46,0.22-0.69,0.32
				c-0.02,0.01-0.03,0.01-0.04,0.02c-0.2,0.08-0.41,0.16-0.62,0.24c-1.13,0.42-2.31,0.74-3.5,0.95c-0.2,0.04-0.4,0.07-0.61,0.1
				c-0.04,0-0.49,0.05-0.6,0.06c-0.76,0.07-1.52,0.09-2.28,0.08c-0.67-0.01-1.35-0.05-2.01-0.11c-0.13-0.01-0.25-0.03-0.38-0.04
				c-0.05-0.01-0.08-0.01-0.1-0.01c0,0-0.01,0-0.01,0c-0.37-0.05-0.75-0.12-1.12-0.19c-1.41-0.27-2.8-0.66-4.15-1.14
				c-0.32-0.12-0.64-0.24-0.95-0.36c-0.22-0.09-0.41-0.17-0.83-0.36c-0.7-0.32-1.38-0.67-2.05-1.04c-1.41-0.78-2.76-1.67-4.05-2.65
				c-1-0.76-2.72-0.19-3.28,0.86c-0.67,1.26-0.21,2.47,0.86,3.28c1.14,0.86,2.33,1.65,3.57,2.37l-2.56,9.97
				c-0.31,1.21,0.4,2.66,1.67,2.95c1.25,0.28,2.61-0.37,2.95-1.67l2.34-9.12c2.94,1.16,6.05,1.87,9.21,2.04
				c0.28,0.01,0.56,0.02,0.84,0.03c0.21,2.75,0.83,5.46,1.87,8.01c0.47,1.16,1.61,2.1,2.95,1.67c1.12-0.36,2.18-1.7,1.67-2.95
				c-0.99-2.42-1.54-4.73-1.72-7.16c3.23-0.62,6.31-1.92,9.03-3.81c0.7,0.63,1.37,1.29,2,1.98c1.04,1.14,1.65,1.94,2.49,3.22
				c0.69,1.05,2.15,1.58,3.28,0.86C246.29,246.53,246.84,245.05,246.1,243.93z"/>
		</g>
		<g>
			<path class="st0" d="M307.94,245.73c-1.44,0-2.81-1.04-3.26-2.47l-2.15-6.82l-0.12,0c-2,0-3.99-0.28-5.94-0.83
				c-1.16,2.19-1.89,4.39-2.32,7.02c-0.28,1.69-1.91,2.57-3.38,2.57c-0.27,0-0.53-0.03-0.77-0.08c-1.95-0.44-2.71-2.43-2.44-4.08
				c0.47-2.84,1.38-5.61,2.72-8.23c-0.99-0.64-1.92-1.36-2.79-2.14c-0.61-0.55-0.98-1.33-1.02-2.19c-0.04-0.94,0.31-1.92,0.95-2.62
				c0.6-0.65,1.43-1.01,2.35-1.01c0.89,0,1.78,0.34,2.45,0.94c0.25,0.23,0.5,0.45,0.77,0.66l0.09,0.07l0.32,0.22
				c0.48,0.34,0.99,0.66,1.51,0.95c1.19,0.66,1.62,0.85,2.92,1.25c0.49,0.15,1,0.29,1.52,0.4c0.25,0.05,0.51,0.1,0.77,0.15
				l0.35,0.06c0.69,0.07,1.37,0.11,2.03,0.11c0.41,0,0.81-0.01,1.22-0.04c0.26-0.02,0.51-0.04,0.77-0.07l0.36-0.06
				c0.48-0.09,0.97-0.2,1.45-0.33c0.5-0.14,1-0.3,1.49-0.49l0.43-0.17l0.43-0.21c0.9-0.44,1.78-0.96,2.61-1.55l0.33-0.24
				c0.21-0.18,0.36-0.3,0.5-0.42c0.37-0.32,0.73-0.66,1.07-1.01c0.37-0.37,0.72-0.77,1.05-1.17l0.18-0.22
				c0.18-0.26,0.32-0.44,0.44-0.63c0.53-0.78,1-1.64,1.42-2.56c0.49-1.07,1.61-1.74,2.94-1.74c0.61,0,1.21,0.14,1.72,0.41
				c1.77,0.94,1.99,3.05,1.3,4.57c-0.54,1.2-1.21,2.36-2,3.47c1.9,1.53,3.67,3.14,5.25,4.8c1.27,1.33,1.28,3.38,0.01,4.75
				c-0.59,0.65-1.47,1.02-2.41,1.02l0,0c-0.94,0-1.83-0.37-2.43-1c-1.63-1.7-3.41-3.32-5.18-4.72c-1.89,1.41-3.95,2.51-6.14,3.26
				l1.92,6.1c0.54,1.73-0.5,3.61-2.32,4.2C308.58,245.68,308.26,245.73,307.94,245.73z"/>
		</g>
		<g>
			<path class="st0" d="M324.72,232.67c-1.84-1.92-3.82-3.68-5.91-5.31c0.98-1.25,1.82-2.62,2.47-4.06
				c0.52-1.14,0.37-2.63-0.86-3.28c-1.05-0.55-2.73-0.36-3.28,0.86c-0.43,0.94-0.92,1.85-1.5,2.7c-0.14,0.21-0.3,0.42-0.45,0.63
				c-0.02,0.03-0.03,0.04-0.04,0.06c-0.06,0.08-0.13,0.16-0.19,0.24c-0.35,0.43-0.72,0.84-1.11,1.23c-0.36,0.37-0.74,0.72-1.13,1.06
				c-0.17,0.14-0.34,0.28-0.51,0.43c-0.02,0.02-0.04,0.03-0.05,0.04c-0.11,0.09-0.23,0.17-0.35,0.25c-0.87,0.62-1.79,1.17-2.75,1.64
				c-0.1,0.05-0.2,0.1-0.3,0.14c-0.03,0.01-0.13,0.06-0.21,0.1c-0.09,0.04-0.37,0.15-0.44,0.18c-0.52,0.2-1.04,0.37-1.58,0.52
				c-0.51,0.14-1.02,0.26-1.54,0.35c-0.12,0.02-0.23,0.04-0.35,0.06c-0.03,0.01-0.06,0.01-0.07,0.01c-0.27,0.03-0.54,0.06-0.81,0.08
				c-1.14,0.08-2.28,0.05-3.42-0.07c-0.02,0-0.04,0-0.05-0.01c-0.12-0.02-0.24-0.04-0.36-0.06c-0.27-0.05-0.54-0.1-0.81-0.16
				c-0.54-0.12-1.07-0.25-1.6-0.42c-1.37-0.42-1.88-0.64-3.11-1.33c-0.55-0.31-1.08-0.64-1.6-1c-0.1-0.07-0.19-0.14-0.29-0.21
				c-0.04-0.03-0.07-0.05-0.1-0.07c-0.01-0.01-0.03-0.03-0.07-0.06c-0.28-0.22-0.54-0.45-0.81-0.69c-0.93-0.84-2.48-0.99-3.39,0
				c-0.84,0.92-0.99,2.49,0,3.39c1.06,0.96,2.22,1.8,3.44,2.53c-1.5,2.72-2.55,5.69-3.05,8.75c-0.2,1.23,0.32,2.64,1.67,2.95
				c1.15,0.26,2.73-0.35,2.95-1.67c0.5-3.01,1.38-5.53,2.82-8.05c2.16,0.69,4.43,1.05,6.72,1.02c0.18,0,0.37-0.01,0.55-0.02
				c0.79,2.51,1.58,5.03,2.37,7.54c0.38,1.19,1.68,2.08,2.95,1.67c1.2-0.39,2.08-1.67,1.67-2.95c-0.74-2.35-1.48-4.7-2.22-7.05
				c2.68-0.78,5.2-2.1,7.4-3.87c2,1.52,4.07,3.37,5.9,5.29c0.87,0.91,2.53,0.94,3.39,0C325.61,235.08,325.64,233.64,324.72,232.67z"
				/>
		</g>
		<g>
			<path class="st0" d="M261.19,321.7c-4.66,0-9.31-1.68-13.1-4.73c-0.62-0.5-0.99-1.24-1.06-2.08c-0.07-0.99,0.29-2.05,0.95-2.76
				c0.59-0.65,1.41-1,2.3-1c0.85,0,1.74,0.33,2.45,0.9l0.13,0.1c0.06,0.04,0.17,0.12,0.28,0.2c0.25,0.17,0.5,0.34,0.75,0.49
				c0.5,0.31,1.03,0.6,1.57,0.85l0.35,0.16l0.1,0.04c0.28,0.1,0.56,0.21,0.84,0.3c0.53,0.17,1.07,0.32,1.62,0.44
				c0.26,0.06,0.51,0.11,0.77,0.15l0.21,0.03c0.01,0,0.11,0.01,0.29,0.04c0.57,0.04,1.12,0.08,1.66,0.08
				c0.7-0.01,1.24-0.04,1.75-0.11l0,0c0.14-0.03,0.27-0.06,0.4-0.08l0.2-0.03c0.24-0.05,0.48-0.1,0.73-0.16
				c0.5-0.13,1-0.28,1.5-0.46c0,0,0.48-0.19,0.57-0.23c0.2-0.09,0.4-0.18,0.59-0.28c0.5-0.25,0.99-0.53,1.46-0.84
				c0.24-0.15,0.47-0.31,0.7-0.47l0.36-0.28c0.77-0.66,1.51-1.4,2.24-2.24c0.03-0.04,0.06-0.08,0.09-0.11l0.16-0.21
				c0.16-0.23,0.32-0.46,0.47-0.7c0.29-0.44,0.56-0.92,0.83-1.46c0.53-1.05,1.66-1.71,2.93-1.71c0.6,0,1.19,0.14,1.7,0.41
				c1.76,0.93,2.04,3.12,1.29,4.61c-1.15,2.29-2.78,4.38-4.71,6.04c-3.67,3.17-8.24,4.97-12.88,5.08
				C261.51,321.7,261.35,321.7,261.19,321.7z"/>
		</g>
		<g>
			<path class="st0" d="M277.51,306.85c-1.09-0.58-2.67-0.33-3.28,0.86c-0.27,0.53-0.56,1.05-0.88,1.55
				c-0.16,0.25-0.33,0.5-0.5,0.74c-0.05,0.08-0.11,0.15-0.17,0.23c-0.01,0.01-0.05,0.06-0.14,0.17c-0.74,0.85-1.52,1.62-2.37,2.36
				c-0.08,0.06-0.13,0.1-0.16,0.12c-0.08,0.06-0.16,0.12-0.25,0.18c-0.24,0.17-0.49,0.34-0.74,0.5c-0.5,0.32-1.02,0.62-1.55,0.89
				c-0.23,0.12-0.46,0.22-0.69,0.33c0.1-0.05-0.51,0.2-0.58,0.23c-0.52,0.19-1.06,0.36-1.6,0.49c-0.26,0.06-0.52,0.12-0.78,0.18
				c-0.07,0.01-0.68,0.12-0.66,0.12c-0.58,0.07-1.17,0.11-1.76,0.11c-0.64,0.01-1.26-0.04-1.9-0.09c-0.14-0.02-0.22-0.03-0.23-0.03
				c-0.1-0.02-0.2-0.03-0.31-0.05c-0.27-0.05-0.54-0.1-0.82-0.16c-0.58-0.13-1.15-0.28-1.72-0.47c-0.3-0.1-0.6-0.21-0.89-0.32
				c-0.06-0.02-0.11-0.04-0.14-0.06c-0.13-0.06-0.25-0.11-0.38-0.17c-0.57-0.27-1.13-0.57-1.67-0.91c-0.27-0.17-0.53-0.34-0.79-0.52
				c-0.12-0.08-0.23-0.17-0.35-0.25c-0.03-0.02-0.07-0.05-0.11-0.09c-0.97-0.78-2.45-1.02-3.39,0c-0.8,0.87-1.04,2.55,0,3.39
				c3.66,2.95,8.2,4.62,12.92,4.51c4.54-0.11,8.83-1.88,12.25-4.84c1.83-1.58,3.38-3.57,4.47-5.73
				C278.93,309.01,278.7,307.48,277.51,306.85z"/>
		</g>
		<g>
			<path class="st0" d="M246.46,363.49c-3.94,0-7.87-0.62-11.67-1.83c-8.28-2.65-16.18-7.72-23.48-15.04
				c-6.53-6.55-11.85-14.27-17-21.74l-1.69-2.45c-2.97-4.3-5.91-8.49-9.18-12.5l-0.55-0.68c-1.38-1.71-2.8-3.48-4.57-4.5
				c-0.72-0.41-1.46-0.61-2.27-0.61c-1.1,0-2.25,0.37-3.32,0.76c-3.96,1.46-7.58,2.67-11.84,2.76c-0.22,0-0.44,0.01-0.66,0.01
				c-3.68,0-7.51-0.71-11.07-2.06c-7.32-2.78-13.73-7.88-18.03-14.37c-8.98-13.56-6.43-32.21,6.21-45.35
				c7.55-7.85,18.82-12.93,28.72-12.93c1.47,0,2.91,0.11,4.3,0.33c10.95-13.17,24.91-25.58,41.5-36.89
				c8.09-5.52,16.63-10.52,25.39-14.86c7.2-3.56,14.72-6.66,22-9.66c1.54-0.63,3.07-1.26,4.61-1.9
				c17.83-7.42,36.03-16.02,45.35-32.11c4.68-8.09,5.77-16.72,3.05-24.32c-2.94-8.21-9.9-13.89-15.21-17.22
				c-0.65-0.41-1.3-0.79-1.96-1.17c-9.2-5.26-20.64-8.38-33.08-9.03c-1.66-0.09-3.36-0.13-5.05-0.13c-4.17,0-8.42,0.27-12.62,0.8
				c-36.35,4.57-67.71,31.41-78.05,66.79c-0.46,1.57-1.88,2.62-3.53,2.62c-0.29,0-0.59-0.03-0.87-0.1
				c-7.33-1.72-14.78-2.59-22.14-2.59c-5.63,0-11.2,0.52-16.56,1.53c-23.99,4.54-42.7,18.77-50.05,38.07
				c-6.51,17.11-5.88,41.04,10.21,55.92c0.78,0.72,1.17,1.74,1.07,2.82c-0.11,1.17-0.76,2.25-1.74,2.87
				c-7.47,4.73-13.87,11.36-18.49,19.16c-1.65,2.78-3.07,5.7-4.23,8.68c-0.94,2.42-1.71,4.86-2.29,7.23
				c-0.33,1.32-0.6,2.67-0.83,4.01l-1.95,0.09l-2.83-10.82l0.09-0.28c0.58-1.74,1.28-3.55,2.09-5.39c0.64-1.45,1.35-2.9,2.1-4.31
				c4.61-8.68,11.12-16.27,18.87-22.01c-7.26-8.08-11.73-18.59-12.97-30.46c-0.62-5.97-0.35-12.12,0.8-18.26
				c1-5.27,2.62-10.43,4.83-15.35c1.93-4.31,4.43-8.43,7.41-12.26c4.22-5.42,9.4-10.24,15.41-14.33
				c13.59-9.23,30.51-14.11,48.94-14.11c6.9,0,13.86,0.7,20.7,2.07c2.29-6.95,5.3-13.62,8.97-19.83c8.85-14.96,21.3-27.42,36-36.02
				c8.36-4.9,17.49-8.55,27.12-10.85c7.84-1.9,15.9-2.86,23.94-2.86c1.1,0,2.19,0.02,3.29,0.05c4.23,0.14,8.39,0.52,12.36,1.12
				c7.27,1.11,14.02,2.99,20.06,5.59c6.04,2.6,11.42,5.95,15.99,9.96c2.01,1.76,3.83,3.7,5.44,5.76c3.4,4.32,5.67,8.98,6.75,13.85
				c1.81,8.23,0.24,17.37-4.43,25.75c-1.58,2.84-3.48,5.58-5.64,8.15c-1.91,2.3-4.09,4.53-6.48,6.63
				c-9.55,8.46-21.47,14.21-30.79,18.27c-3.72,1.62-7.53,3.19-11.22,4.7c-4.89,2.01-9.95,4.09-14.83,6.31
				c-8.34,3.8-16.53,8.21-24.34,13.11c-15.89,9.95-30.36,22.01-43.01,35.84c-0.56,0.61-1.14,1.24-1.71,1.88
				c2.75,1.5,5.16,3.59,7.18,6.21c5.25,6.84,7.38,16.59,5.42,24.85c-1.62,6.82-7.08,11.41-13.59,11.41c-1.34,0-2.7-0.19-4.05-0.57
				c-7.26-2.03-13.07-8.38-14.13-15.43c-1.04-6.92,1.08-14.17,6.47-22.1c-5.87,0.16-12.38,2.59-17.98,6.72
				c-6.26,4.63-11.02,11.37-13.05,18.51c-2.08,7.31-1.19,14.74,2.5,20.91c3.6,6.02,9.44,10.71,16.01,12.86
				c2.62,0.85,5.25,1.29,7.81,1.29c0.7,0,1.4-0.03,2.09-0.1c2.08-0.19,4-0.91,6.04-1.66c1.91-0.71,3.88-1.44,6-1.71
				c0.49-0.06,0.97-0.09,1.45-0.09c3.8,0,7.31,1.87,10.73,5.72c3.35,3.77,6.34,7.9,8.89,11.49c1.45,2.03,2.88,4.11,4.33,6.21
				c9.36,13.55,19.04,27.56,34.59,33.61c4,1.55,8.08,2.34,12.15,2.34c4.52,0,8.93-0.97,13.11-2.88
				c8.67-3.96,15.83-10.62,21.86-16.55c13.5-13.27,25.1-28.39,34.49-44.93c8.49-14.94,18.21-34.69,18.07-54.91
				c-0.11-14.74-7.5-32.42-23.79-38.7c-3-1.16-6.12-1.74-9.28-1.74c-11.69,0-22.74,7.97-27.49,19.84
				c-3.08,7.7-3.38,17.03-0.84,26.26c1.19,4.32,2.97,8.54,5.28,12.54c0.44,0.75,0.89,1.5,1.34,2.25c2.03,3.35,4.13,6.82,4.7,10.92
				c1.26,9.11-5.91,16.08-13.1,18.7c-2.44,0.88-5.08,1.33-7.85,1.33c-7.49,0-14.89-3.14-21.43-5.92c-1.49-0.63-2.23-1.97-1.92-3.49
				c0.32-1.57,1.84-3.19,3.84-3.19c0.51,0,1.01,0.11,1.5,0.31c5.23,2.22,11.74,4.99,17.9,4.99c3.44,0,6.4-0.85,9.02-2.6
				c3.29-2.19,5.15-5.37,4.96-8.49c-0.2-3.27-2.15-6.34-4.03-9.3c-0.73-1.15-1.49-2.34-2.12-3.52c-4.89-9.13-7.33-18.91-7.04-28.29
				c0.58-18.69,13.02-35.02,29.6-38.85c2.36-0.54,4.77-0.82,7.17-0.82c13.45,0,27.02,8.83,34.58,22.51
				c10.49,18.95,5.7,41.53-0.17,57.14c-6.68,17.79-16.63,35.28-29.56,51.97c-6.12,7.89-12.79,15.36-19.83,22.18
				c-6.78,6.57-14.31,13.2-23.41,17.15C257.14,362.37,251.83,363.49,246.46,363.49z M172.92,241.49
				c-4.38,5.61-6.68,10.51-7.23,15.36c-0.75,6.67,3.39,12.7,9.64,14.03c0.6,0.13,1.18,0.19,1.72,0.19c1.69,0,3.04-0.6,4.13-1.85
				c2.38-2.71,2.93-7.87,2.42-11.79C182.83,251.55,179.62,244.37,172.92,241.49z"/>
		</g>
		<g>
			<path class="st0" d="M172.6,240.28c6.98,2.61,11.04,9.7,11.99,17.03c0.82,6.32-0.95,16.35-9.47,14.55
				c-7.05-1.5-11.2-8.2-10.42-15.12C165.39,250.61,168.7,245.16,172.6,240.28z M55.84,293.63c0.23-1.37,0.51-2.73,0.84-4.08
				c0.61-2.5,1.39-4.95,2.32-7.36c1.18-3.04,2.62-5.99,4.3-8.82c4.66-7.86,11.08-14.59,18.82-19.49c1.37-0.87,1.81-2.92,0.53-4.11
				c-15.56-14.4-17.72-37.93-10.46-57.01c8.19-21.5,28.88-34.55,50.8-38.7c12.9-2.44,26.35-1.92,39.11,1.07
				c1.39,0.33,2.81-0.43,3.22-1.83c10.46-35.81,41.81-62.84,78.88-67.5c5.8-0.73,11.83-0.99,17.84-0.67
				c11.74,0.61,23.46,3.41,33.52,9.16c0.67,0.38,1.34,0.78,2,1.19c6.71,4.2,12.9,10.14,15.62,17.73c3.04,8.5,1.32,17.49-3.12,25.16
				c-9.72,16.78-28.69,25.39-45.83,32.53c-8.91,3.7-17.89,7.25-26.55,11.53c-8.76,4.34-17.21,9.28-25.27,14.79
				c-15.27,10.41-29.86,22.84-41.67,37.15c-11.42-2.1-24.82,4.01-32.7,12.21c-11.26,11.71-15.45,29.98-6.09,44.1
				c4.23,6.37,10.41,11.28,17.55,13.99c3.59,1.36,7.51,2.08,11.36,1.99c4.12-0.09,7.7-1.3,11.52-2.7c2.21-0.81,4.28-1.31,6.43-0.08
				c2.18,1.25,3.83,3.49,5.4,5.41c3.28,4.03,6.27,8.29,9.22,12.56c5.76,8.31,11.42,16.86,18.58,24.05
				c6.48,6.5,14.28,11.98,23.08,14.8c8.9,2.84,18.2,2.24,26.75-1.47c8.83-3.83,16.27-10.31,23.11-16.95
				c7.09-6.88,13.68-14.27,19.74-22.08c12.14-15.67,22.43-33.12,29.41-51.71c6.7-17.83,9.86-38.9,0.23-56.3
				c-7.89-14.28-23.9-25.07-40.65-21.2c-17.22,3.98-28.3,20.88-28.82,37.9c-0.3,9.65,2.38,19.32,6.92,27.79
				c2.22,4.14,5.96,8.35,6.26,13.23c0.24,3.9-2.28,7.31-5.4,9.39c-8.63,5.74-19.32,1.33-27.87-2.3c-3.07-1.3-5.74,3.21-2.64,4.52
				c8.75,3.72,19,8.03,28.55,4.57c7.32-2.67,13.59-9.38,12.45-17.62c-0.67-4.79-3.56-8.72-5.92-12.81
				c-2.32-4.02-4.14-8.3-5.37-12.78c-2.41-8.77-2.54-18.36,0.87-26.9c5.97-14.93,22.4-24.69,38.05-18.66
				c15.94,6.15,24.31,23.35,24.43,39.63c0.13,19.62-8.71,38.68-18.2,55.41c-9.4,16.56-21.08,31.79-34.65,45.15
				c-6.6,6.49-13.64,12.86-22.14,16.75c-8.38,3.83-17.49,3.89-26.04,0.56c-18.29-7.11-28.58-24.99-39.38-40.17
				c-2.78-3.91-5.63-7.82-8.82-11.4c-2.95-3.32-6.68-5.89-11.31-5.3c-4.18,0.54-7.82,2.98-12.07,3.38
				c-3.5,0.33-6.98-0.15-10.31-1.24c-6.84-2.24-12.87-7.13-16.56-13.3c-3.94-6.59-4.69-14.35-2.61-21.7
				c2.15-7.58,7.09-14.37,13.41-19.04c5.69-4.2,13.22-7.28,20.48-6.89c-4.83,6.68-8.64,14.51-7.38,22.93
				c1.03,6.88,6.8,12.76,13.41,14.61c7.7,2.16,14.57-2.44,16.39-10.11c1.91-8.05-0.21-17.47-5.23-24.01c-2.3-2.99-5.03-5.12-8-6.51
				c0.87-0.97,1.74-1.92,2.59-2.85c12.7-13.89,27.27-26.03,43.22-36.02c7.85-4.92,16.03-9.33,24.46-13.17
				c8.59-3.91,17.42-7.26,26.07-11.02c10.69-4.66,21.68-10.28,30.53-18.11c2.29-2.01,4.43-4.18,6.37-6.52
				c2.07-2.47,3.93-5.12,5.53-8c4.24-7.62,6.22-16.43,4.32-25.05c-1.09-4.94-3.44-9.48-6.56-13.45c-1.58-2.04-3.38-3.92-5.31-5.62
				c-4.69-4.12-10.02-7.34-15.72-9.79c-6.29-2.71-13.01-4.49-19.81-5.52c-4.09-0.62-8.2-0.98-12.25-1.11
				c-9.05-0.3-18.15,0.64-26.97,2.78c-9.41,2.25-18.5,5.86-26.84,10.74c-14.66,8.58-27,21.06-35.64,35.67
				c-3.81,6.46-6.88,13.34-9.16,20.48c-23.5-4.92-49.62-1.97-69.75,11.71c-5.78,3.93-10.94,8.66-15.18,14.12
				c-2.88,3.69-5.34,7.71-7.28,12.05c-2.17,4.83-3.78,9.91-4.76,15.12c-1.11,5.92-1.41,11.98-0.79,17.98
				c1.18,11.42,5.6,22.36,13.47,30.72c-8.14,5.8-14.81,13.53-19.49,22.33c-0.74,1.39-1.43,2.81-2.07,4.24
				c-0.76,1.73-1.46,3.5-2.06,5.3L55.84,293.63z"/>
		</g>
	</g>
	<g>
		<g>
			<path class="st0" d="M412.34,282.58c-0.62-1.81-1.33-3.63-2.12-5.4c-0.61-1.38-1.31-2.82-2.08-4.26
				c-4.6-8.63-11.09-16.18-18.82-21.91c7.26-8.09,11.73-18.6,12.97-30.47c0.59-5.8,0.36-11.72-0.69-17.61
				c-0.97-5.49-2.64-10.87-4.94-16c-2.03-4.51-4.66-8.8-7.81-12.77c-4.14-5.22-9.19-9.87-15.01-13.82
				c-13.59-9.23-30.52-14.11-48.94-14.11c-5.18,0-10.44,0.4-15.63,1.18c-1.67,0.25-3.38,0.55-5.08,0.89l-0.19-0.57l-0.09-0.27
				c-0.76,0.8-1.59,1.54-2.48,2.2c-0.52,1.45-1.13,3.01-1.86,4.77l-0.35,0.84l0.8,0.43c0.54,0.29,1.14,0.44,1.75,0.44
				c0.29,0,0.59-0.04,0.88-0.11c0.18-0.04,0.35-0.08,0.6-0.14c7.14-1.63,14.38-2.46,21.54-2.46c5.62,0,11.19,0.51,16.55,1.53
				c24,4.55,42.71,18.78,50.05,38.07c6.51,17.11,5.88,41.04-10.21,55.92c-0.78,0.72-1.17,1.75-1.07,2.82
				c0.1,1.17,0.75,2.25,1.74,2.87c7.47,4.73,13.87,11.35,18.49,19.16c1.62,2.73,3.02,5.61,4.19,8.57c0.94,2.4,1.71,4.82,2.29,7.18
				c0.34,1.34,0.62,2.7,0.84,4.02l1.95,0.09l2.82-10.81L412.34,282.58z"/>
		</g>
		<g>
			<path class="st0" d="M409.31,277.58c-0.63-1.42-1.32-2.82-2.05-4.2c-4.66-8.76-11.33-16.45-19.43-22.22
				c7.87-8.37,12.28-19.3,13.47-30.72c0.59-5.77,0.34-11.62-0.68-17.33c-0.96-5.43-2.61-10.75-4.87-15.77
				c-2.04-4.53-4.63-8.73-7.68-12.56c-4.16-5.25-9.18-9.81-14.78-13.61c-18.46-12.54-41.96-16.07-63.86-12.77
				c-1.98,0.3-3.95,0.65-5.89,1.06c-0.13-0.4-0.27-0.8-0.4-1.2c-0.07,0.07-0.14,0.13-0.21,0.19c-0.71,2.12-1.52,4.23-2.41,6.37
				c0.57,0.3,1.25,0.41,1.92,0.24c0.21-0.05,0.41-0.1,0.62-0.14c12.59-2.87,25.79-3.34,38.49-0.93c21.92,4.15,42.62,17.21,50.8,38.7
				c7.26,19.09,5.1,42.61-10.46,57.01c-1.28,1.18-0.84,3.24,0.53,4.12c7.74,4.89,14.16,11.62,18.82,19.49
				c1.66,2.8,3.08,5.72,4.26,8.71c0.93,2.39,1.72,4.83,2.32,7.3c0.34,1.35,0.63,2.72,0.86,4.1l2.75-10.52
				C410.78,281.09,410.08,279.32,409.31,277.58z"/>
		</g>
	</g>
	<g>
		<g>
			<path class="st0" d="M232.22,426.36c-49.37,0-95.78-19.23-130.69-54.14c-8.58-8.58-16.31-17.97-22.98-27.91
				c-0.93-1.39-1.87-2.83-2.87-4.42c-1.42-2.23-2.83-4.57-4.31-7.17c-3.75-6.59-7.13-13.5-10.04-20.53
				c-2.48-6.02-4.65-12.17-6.45-18.28l-0.1-0.35c-0.99-3.4-1.89-6.85-2.67-10.24c-0.83-3.59-1.56-7.29-2.17-10.99
				c-1.69-10.07-2.54-20.43-2.54-30.79c0-49.37,19.23-95.78,54.14-130.69c34.91-34.91,81.33-54.14,130.69-54.14
				c13.46,0,26.87,1.44,39.85,4.29c6.73,1.47,13.43,3.34,19.92,5.55c26.77,9.11,50.63,24.01,70.92,44.3
				c34.91,34.91,54.14,81.32,54.14,130.69c0,10.27-0.84,20.54-2.5,30.53c-0.61,3.73-1.34,7.41-2.15,10.94v0.28l-0.09,0.1
				c-0.74,3.2-1.58,6.45-2.51,9.65c-0.06,0.21-0.13,0.45-0.2,0.67c-1.81,6.26-4.04,12.58-6.62,18.77c-2.86,6.89-6.2,13.7-9.92,20.25
				c-1.38,2.41-2.81,4.79-4.25,7.08c-1,1.59-1.93,3.03-2.87,4.41c-6.69,9.98-14.45,19.4-23.04,27.99
				C327.99,407.13,281.58,426.36,232.22,426.36z M232.22,64.63c-64.64,0-124.14,35.33-155.28,92.21
				c-4.73,8.61-8.76,17.71-11.98,27.02c-6.4,18.5-9.65,37.91-9.65,57.67c0,5.72,0.28,11.5,0.82,17.17c0.38,3.95,0.9,7.88,1.53,11.69
				c0.16,1,0.34,1.99,0.52,2.98c0.53,2.91,1.13,5.8,1.79,8.59c3.93,16.75,10.29,32.8,18.9,47.71c2.17,3.75,4.51,7.49,6.96,11.09
				c33.08,48.63,87.8,77.67,146.39,77.67c58.62,0,113.37-29.06,146.44-77.75c2.46-3.62,4.78-7.33,6.91-11.03
				c8.56-14.84,14.88-30.76,18.8-47.34l0.12-0.52c0.64-2.72,1.24-5.61,1.78-8.58c0.19-1.01,0.36-2.02,0.53-3.03
				c0.65-3.93,1.15-7.85,1.51-11.68c0.54-5.58,0.81-11.29,0.81-16.96c0-19.55-3.18-38.76-9.46-57.1
				c-3.31-9.7-7.51-19.18-12.48-28.17c-17.24-31.23-43.15-56.29-74.93-72.47c-5.48-2.81-11.21-5.36-17.03-7.57
				c-10.78-4.12-21.99-7.19-33.33-9.11c-9.62-1.63-19.46-2.47-29.24-2.48c-0.16-0.01-0.27-0.01-0.38-0.01
				C232.24,64.63,232.23,64.63,232.22,64.63z"/>
		</g>
		<g>
			<path class="st0" d="M362.2,111.55c-20.2-20.2-44.26-35.12-70.53-44.06c-6.48-2.21-13.09-4.06-19.81-5.52
				c-12.87-2.82-26.14-4.26-39.64-4.26c-49.11,0-95.27,19.12-129.99,53.84c-34.72,34.72-53.84,80.88-53.84,129.99
				c0,10.36,0.85,20.6,2.53,30.63c0.61,3.68,1.33,7.32,2.16,10.93c0.78,3.44,1.67,6.83,2.66,10.2c0.03,0.11,0.07,0.22,0.1,0.33
				c1.81,6.18,3.96,12.25,6.41,18.18c2.89,7,6.23,13.81,9.99,20.42c1.37,2.41,2.79,4.79,4.29,7.14c0.93,1.47,1.87,2.94,2.85,4.39
				c6.63,9.87,14.27,19.16,22.86,27.75c34.72,34.72,80.88,53.84,129.99,53.84c49.1,0,95.26-19.12,129.98-53.84
				c8.62-8.62,16.28-17.95,22.92-27.84c0.98-1.45,1.92-2.92,2.85-4.39c1.47-2.32,2.87-4.66,4.23-7.04c3.7-6.51,7-13.24,9.86-20.14
				c2.54-6.1,4.75-12.33,6.59-18.69c0.07-0.21,0.13-0.44,0.19-0.65c0.94-3.25,1.79-6.53,2.55-9.84c0.01-0.01,0.01-0.01,0.01-0.03
				c0.84-3.63,1.55-7.3,2.16-10.99c1.65-9.94,2.49-20.09,2.49-30.37C416.04,192.43,396.92,146.27,362.2,111.55z M386.44,330.15
				c-2.18,3.79-4.51,7.49-6.95,11.1c-32.03,47.15-86.09,78.19-147.27,78.19c-61.14,0-115.17-31-147.21-78.1
				c-2.47-3.63-4.8-7.34-7-11.16c-8.54-14.78-15-30.92-19-47.98c-0.67-2.85-1.27-5.74-1.8-8.64c-0.19-1-0.36-2-0.53-3
				c-0.64-3.88-1.15-7.8-1.54-11.76c-0.55-5.68-0.83-11.44-0.83-17.26c0-20.3,3.41-39.81,9.71-58c3.26-9.45,7.3-18.53,12.05-27.18
				c30.23-55.21,88.89-92.73,156.16-92.73c0.14,0,0.28,0,0.42,0.01c10.02,0.01,19.84,0.87,29.41,2.49
				c11.59,1.96,22.8,5.06,33.52,9.16c5.86,2.24,11.58,4.78,17.13,7.62c31.81,16.2,58.13,41.69,75.35,72.88
				c4.97,8.99,9.19,18.46,12.56,28.33c6.17,18.02,9.51,37.34,9.51,57.43c0,5.75-0.27,11.44-0.81,17.05
				c-0.37,3.95-0.88,7.86-1.52,11.73c-0.17,1.02-0.34,2.04-0.53,3.06c-0.53,2.9-1.12,5.78-1.79,8.63c0.01,0.01,0,0.01,0,0.01
				C401.47,299.15,394.99,315.32,386.44,330.15z"/>
		</g>
	</g>
	<g>
		<path class="st0" d="M182.89,20.9c0.45-1.67,1.12-3.05,2.01-4.14c0.89-1.09,2.06-1.8,3.53-2.12c1.16-0.25,2.14-0.21,2.95,0.14
			l0.61,4.6c-0.02,0.31-0.09,0.54-0.22,0.7c-0.13,0.16-0.32,0.26-0.58,0.32c-0.24,0.05-0.62,0.09-1.11,0.12
			c-0.5,0.02-0.98,0.09-1.43,0.19c-0.67,0.15-1.24,0.38-1.72,0.69c-0.48,0.31-0.88,0.69-1.22,1.15c-0.33,0.46-0.6,0.98-0.81,1.57
			c-0.2,0.59-0.37,1.25-0.5,1.98l3.4,15.43l-6.03,1.33l-5.52-25.05l3.54-0.78c0.62-0.14,1.07-0.12,1.37,0.04
			c0.29,0.17,0.54,0.52,0.75,1.08L182.89,20.9z"/>
		<path class="st0" d="M212.94,4.31c0.05,0.53-0.01,1.04-0.18,1.52c-0.17,0.49-0.42,0.92-0.74,1.3c-0.32,0.38-0.71,0.7-1.18,0.96
			c-0.46,0.25-0.97,0.41-1.51,0.46c-0.53,0.05-1.04,0-1.54-0.17c-0.49-0.16-0.93-0.4-1.31-0.71c-0.38-0.31-0.7-0.69-0.95-1.14
			c-0.25-0.44-0.4-0.93-0.46-1.46c-0.05-0.55,0-1.07,0.16-1.57c0.16-0.5,0.4-0.94,0.71-1.33c0.31-0.38,0.7-0.7,1.15-0.95
			s0.94-0.41,1.48-0.46c0.55-0.05,1.07,0,1.57,0.16c0.5,0.16,0.95,0.4,1.34,0.71c0.39,0.31,0.72,0.7,0.98,1.16
			C212.72,3.26,212.88,3.76,212.94,4.31z M212.81,11.83l2.48,25.53l-6.17,0.6l-2.48-25.53L212.81,11.83z"/>
		<path class="st0" d="M246.75,16.38c-0.17,0.26-0.36,0.44-0.54,0.55c-0.19,0.1-0.42,0.15-0.7,0.14c-0.3-0.01-0.62-0.1-0.95-0.28
			c-0.34-0.18-0.73-0.38-1.17-0.6c-0.44-0.22-0.95-0.42-1.52-0.61s-1.25-0.29-2.03-0.31c-1.22-0.04-2.18,0.19-2.88,0.69
			s-1.07,1.16-1.1,1.99c-0.02,0.55,0.15,1.02,0.5,1.4c0.35,0.39,0.81,0.73,1.4,1.03c0.58,0.3,1.25,0.58,1.99,0.82
			c0.74,0.25,1.5,0.52,2.26,0.81c0.77,0.29,1.52,0.62,2.26,0.98c0.74,0.36,1.4,0.82,1.97,1.36c0.58,0.54,1.03,1.19,1.37,1.93
			c0.34,0.74,0.49,1.63,0.46,2.67c-0.04,1.23-0.29,2.36-0.76,3.39c-0.47,1.03-1.15,1.91-2.04,2.64c-0.89,0.73-1.98,1.29-3.26,1.68
			c-1.29,0.39-2.76,0.56-4.43,0.51c-0.88-0.03-1.74-0.13-2.58-0.31c-0.84-0.18-1.64-0.43-2.4-0.73c-0.77-0.31-1.47-0.66-2.12-1.06
			c-0.65-0.4-1.21-0.84-1.7-1.3l1.49-2.31c0.19-0.28,0.41-0.49,0.67-0.63c0.25-0.14,0.57-0.21,0.96-0.2
			c0.38,0.01,0.74,0.13,1.08,0.36c0.33,0.23,0.72,0.47,1.17,0.74s0.96,0.51,1.57,0.75c0.6,0.23,1.37,0.37,2.3,0.39
			c0.73,0.02,1.36-0.05,1.89-0.21c0.53-0.16,0.97-0.38,1.32-0.65c0.35-0.27,0.61-0.59,0.78-0.96c0.17-0.37,0.26-0.76,0.27-1.16
			c0.02-0.6-0.15-1.1-0.49-1.49c-0.35-0.39-0.81-0.74-1.4-1.04c-0.58-0.3-1.25-0.57-2-0.82c-0.75-0.25-1.52-0.52-2.3-0.81
			c-0.78-0.29-1.55-0.62-2.3-1.01c-0.75-0.38-1.41-0.85-1.98-1.42c-0.57-0.57-1.03-1.26-1.36-2.07c-0.33-0.81-0.48-1.78-0.45-2.92
			c0.03-1.05,0.27-2.04,0.71-2.98c0.44-0.94,1.08-1.75,1.91-2.43c0.83-0.68,1.85-1.22,3.07-1.61c1.22-0.39,2.62-0.56,4.2-0.51
			c1.77,0.05,3.36,0.39,4.8,1.02c1.43,0.63,2.62,1.43,3.55,2.41L246.75,16.38z"/>
		<path class="st0" d="M267.98,27.51c-0.15,1.31-0.14,2.47,0.04,3.48c0.18,1.01,0.5,1.88,0.98,2.61s1.08,1.32,1.83,1.78
			c0.75,0.46,1.62,0.78,2.6,0.97s1.85,0.24,2.61,0.15c0.76-0.09,1.43-0.23,2.01-0.4c0.58-0.18,1.1-0.34,1.55-0.49
			c0.44-0.15,0.86-0.19,1.23-0.12c0.51,0.1,0.85,0.36,1.02,0.78l1.32,2.54c-0.82,0.66-1.7,1.17-2.64,1.54
			c-0.94,0.37-1.89,0.63-2.86,0.77c-0.97,0.14-1.94,0.19-2.9,0.14c-0.97-0.05-1.89-0.16-2.78-0.33c-1.75-0.34-3.32-0.94-4.72-1.81
			c-1.39-0.87-2.54-1.98-3.43-3.33c-0.89-1.35-1.5-2.93-1.81-4.73c-0.32-1.8-0.26-3.81,0.16-6.01c0.33-1.72,0.92-3.28,1.77-4.69
			s1.9-2.57,3.15-3.49c1.25-0.92,2.69-1.56,4.32-1.93c1.62-0.37,3.38-0.37,5.26-0.01c1.59,0.31,3,0.84,4.25,1.61
			c1.24,0.77,2.26,1.73,3.03,2.89c0.78,1.16,1.31,2.5,1.58,4.02c0.28,1.52,0.24,3.19-0.11,5.01c-0.18,0.92-0.39,1.52-0.65,1.8
			c-0.26,0.28-0.67,0.37-1.22,0.26L267.98,27.51z M280.24,26.08c0.15-0.79,0.18-1.55,0.1-2.29c-0.09-0.74-0.3-1.41-0.64-2.02
			c-0.34-0.61-0.82-1.13-1.44-1.56c-0.62-0.43-1.38-0.74-2.28-0.91c-1.75-0.34-3.23-0.1-4.42,0.7s-2.11,2.1-2.74,3.88L280.24,26.08z
			"/>
	</g>
	<g>
		<path class="st0" d="M1.62,271.42l25.11-5.22l0.77,3.7c0.16,0.78-0.1,1.37-0.78,1.77l-1.78,0.78c0.58,0.34,1.12,0.71,1.63,1.1
			c0.51,0.4,0.97,0.84,1.37,1.32s0.76,1.02,1.06,1.62c0.3,0.59,0.53,1.26,0.69,2.01c0.33,1.58,0.17,2.97-0.47,4.17
			c-0.65,1.2-1.62,2.2-2.94,3c0.91,0.22,1.73,0.56,2.45,1.02c0.72,0.46,1.34,1.01,1.86,1.63c0.52,0.62,0.95,1.31,1.3,2.07
			c0.34,0.75,0.6,1.53,0.77,2.33c0.29,1.39,0.33,2.66,0.13,3.83c-0.2,1.16-0.63,2.2-1.3,3.1c-0.66,0.9-1.54,1.67-2.64,2.3
			c-1.1,0.63-2.4,1.1-3.92,1.41l-15.98,3.32l-1.26-6.05l15.98-3.32c1.6-0.33,2.73-0.93,3.39-1.8c0.66-0.87,0.85-1.98,0.57-3.34
			c-0.13-0.62-0.35-1.17-0.68-1.66s-0.73-0.89-1.21-1.21c-0.48-0.32-1.05-0.53-1.7-0.63c-0.65-0.1-1.37-0.07-2.15,0.09l-15.98,3.32
			l-1.26-6.07l15.98-3.32c1.68-0.35,2.83-0.94,3.46-1.78c0.63-0.84,0.8-1.91,0.53-3.21c-0.18-0.88-0.57-1.66-1.16-2.33
			c-0.59-0.67-1.33-1.25-2.21-1.75l-18.38,3.82L1.62,271.42z"/>
		<path class="st0" d="M36,316.5c3.66,1.61,6.32,4.32,7.99,8.12c0.6,1.37,0.92,2.7,0.95,3.98c0.03,1.28-0.2,2.47-0.67,3.57
			s-1.18,2.09-2.12,2.97c-0.94,0.88-2.08,1.61-3.41,2.19l-14.83,6.52l-1.13-2.56c-0.23-0.53-0.34-0.98-0.3-1.34s0.26-0.73,0.67-1.11
			l1.47-1.25c-0.8-0.36-1.52-0.73-2.17-1.12c-0.65-0.39-1.25-0.83-1.79-1.31s-1.04-1.05-1.49-1.68c-0.45-0.63-0.86-1.37-1.23-2.2
			c-0.44-0.99-0.71-1.97-0.81-2.92c-0.1-0.96-0.02-1.86,0.25-2.7c0.27-0.85,0.72-1.61,1.37-2.29c0.65-0.68,1.49-1.26,2.55-1.72
			c0.6-0.26,1.23-0.42,1.9-0.48c0.67-0.06,1.38,0.02,2.11,0.23s1.49,0.58,2.28,1.09s1.59,1.21,2.4,2.1
			c0.81,0.89,1.63,1.98,2.46,3.27c0.83,1.29,1.66,2.82,2.49,4.58l1.37-0.6c1.57-0.69,2.59-1.54,3.05-2.54
			c0.46-1,0.41-2.14-0.15-3.41c-0.4-0.92-0.84-1.63-1.32-2.14c-0.48-0.51-0.95-0.93-1.42-1.27c-0.47-0.34-0.89-0.65-1.27-0.93
			c-0.38-0.28-0.67-0.65-0.87-1.11c-0.17-0.4-0.22-0.78-0.13-1.14c0.09-0.37,0.23-0.69,0.43-0.98L36,316.5z M31.51,333.93
			c-0.79-1.6-1.54-2.91-2.23-3.93c-0.7-1.02-1.35-1.8-1.97-2.33c-0.62-0.53-1.2-0.85-1.76-0.95c-0.55-0.1-1.08-0.04-1.59,0.18
			c-0.99,0.44-1.57,1.04-1.74,1.82c-0.17,0.77-0.05,1.64,0.37,2.58c0.51,1.16,1.16,2.07,1.95,2.73c0.79,0.66,1.79,1.21,3,1.64
			L31.51,333.93z"/>
		<path class="st0" d="M37.25,367.73c-1.2-1.89-1.58-3.67-1.16-5.35c0.42-1.68,1.57-3.12,3.44-4.3l12.09-7.68l-1.41-2.22
			c-0.18-0.28-0.24-0.58-0.18-0.89c0.06-0.31,0.27-0.59,0.64-0.82l2.07-1.31l2.78,3.12l6.61-2.65c0.33-0.11,0.63-0.11,0.91-0.01
			c0.28,0.1,0.52,0.3,0.71,0.61l1.71,2.7l-6.82,4.33l3.67,5.78l-3.71,2.36l-3.67-5.78l-11.74,7.45c-0.68,0.43-1.1,0.93-1.27,1.5
			c-0.17,0.57-0.07,1.15,0.29,1.72c0.21,0.32,0.42,0.57,0.63,0.74c0.22,0.17,0.42,0.31,0.6,0.42c0.19,0.11,0.36,0.2,0.52,0.28
			s0.28,0.18,0.36,0.31c0.1,0.16,0.14,0.31,0.12,0.45c-0.02,0.15-0.06,0.33-0.15,0.54l-1.54,3.17c-1.12-0.36-2.15-0.93-3.1-1.71
			S37.92,368.79,37.25,367.73z"/>
		<path class="st0" d="M63.2,382.1c-0.92,0.94-1.63,1.87-2.11,2.77c-0.48,0.91-0.76,1.79-0.83,2.66s0.04,1.71,0.36,2.53
			s0.8,1.61,1.46,2.36c0.66,0.75,1.31,1.32,1.97,1.71c0.65,0.39,1.26,0.7,1.83,0.92c0.57,0.22,1.08,0.41,1.52,0.56
			c0.44,0.15,0.79,0.37,1.05,0.66c0.34,0.39,0.45,0.8,0.33,1.24l-0.52,2.82c-1.05,0.01-2.06-0.12-3.03-0.4
			c-0.97-0.28-1.88-0.66-2.73-1.15c-0.85-0.48-1.65-1.04-2.38-1.67s-1.39-1.29-1.99-1.96c-1.18-1.34-2.05-2.78-2.61-4.33
			c-0.57-1.54-0.79-3.12-0.66-4.74c0.12-1.62,0.61-3.23,1.47-4.85c0.86-1.61,2.13-3.16,3.82-4.65c1.32-1.15,2.74-2.03,4.27-2.61
			c1.53-0.59,3.08-0.86,4.63-0.82c1.56,0.04,3.09,0.42,4.59,1.13c1.51,0.71,2.89,1.78,4.15,3.22c1.06,1.22,1.85,2.51,2.37,3.88
			c0.51,1.37,0.72,2.75,0.62,4.14c-0.1,1.39-0.51,2.77-1.22,4.14c-0.72,1.37-1.77,2.66-3.16,3.88c-0.7,0.62-1.24,0.96-1.62,1.02
			c-0.38,0.06-0.75-0.12-1.12-0.54L63.2,382.1z M73.76,388.51c0.6-0.53,1.09-1.11,1.48-1.74c0.38-0.64,0.63-1.3,0.73-1.99
			c0.1-0.69,0.04-1.4-0.18-2.12c-0.22-0.72-0.64-1.43-1.24-2.12c-1.18-1.34-2.48-2.06-3.92-2.16c-1.44-0.1-2.96,0.36-4.55,1.38
			L73.76,388.51z"/>
		<path class="st0" d="M96.8,402.85c1.6-0.66,3.1-0.98,4.5-0.94s2.68,0.53,3.83,1.5c0.91,0.76,1.47,1.57,1.69,2.42l-3.27,3.29
			c-0.26,0.18-0.49,0.26-0.69,0.26s-0.4-0.09-0.61-0.26c-0.19-0.16-0.45-0.43-0.77-0.81c-0.32-0.38-0.66-0.72-1.02-1.02
			c-0.52-0.44-1.06-0.75-1.59-0.94c-0.54-0.19-1.09-0.28-1.66-0.26c-0.57,0.02-1.15,0.12-1.74,0.32c-0.59,0.2-1.22,0.47-1.87,0.81
			l-10.14,12.12l-4.74-3.96l16.46-19.67l2.78,2.33c0.49,0.41,0.75,0.78,0.8,1.11s-0.08,0.75-0.39,1.25L96.8,402.85z"/>
		<path class="st0" d="M120.59,418.71c0.71-0.18,1.42-0.31,2.14-0.4c0.72-0.08,1.43-0.09,2.14-0.03c0.71,0.06,1.42,0.21,2.14,0.43
			c0.72,0.23,1.45,0.56,2.2,1c1.2,0.72,2.15,1.56,2.83,2.52s1.12,2,1.3,3.11c0.18,1.11,0.13,2.27-0.16,3.49
			c-0.29,1.22-0.8,2.44-1.53,3.67l-8.37,14.02l-5.3-3.16l8.37-14.02c0.8-1.34,1.12-2.57,0.94-3.67c-0.18-1.1-0.89-2.03-2.15-2.78
			c-0.92-0.55-1.9-0.85-2.95-0.92c-1.05-0.06-2.15,0.05-3.29,0.34l-9.51,15.93l-5.3-3.17l13.15-22.03l3.24,1.93
			c0.69,0.41,0.95,1,0.78,1.77L120.59,418.71z"/>
		<path class="st0" d="M156.29,433.29l-9.81,23.7l-5.73-2.37l9.81-23.7L156.29,433.29z M159.93,426.71c-0.2,0.49-0.5,0.91-0.87,1.26
			c-0.38,0.35-0.8,0.62-1.27,0.8c-0.46,0.19-0.96,0.28-1.49,0.29s-1.04-0.09-1.55-0.3c-0.49-0.2-0.92-0.49-1.28-0.87
			c-0.36-0.37-0.63-0.79-0.82-1.25s-0.29-0.94-0.31-1.45c-0.01-0.51,0.08-1.01,0.28-1.51c0.21-0.51,0.5-0.95,0.88-1.31
			c0.38-0.37,0.79-0.65,1.25-0.83c0.46-0.19,0.94-0.29,1.46-0.3c0.52-0.01,1.02,0.09,1.52,0.29c0.51,0.21,0.95,0.5,1.31,0.88
			c0.37,0.38,0.65,0.8,0.85,1.26s0.3,0.96,0.32,1.49S160.14,426.2,159.93,426.71z"/>
		<path class="st0" d="M172.52,466.01c-2.15-0.59-3.64-1.66-4.45-3.19c-0.81-1.53-0.93-3.36-0.34-5.5l3.81-13.81l-2.53-0.7
			c-0.32-0.09-0.57-0.27-0.73-0.54c-0.17-0.27-0.19-0.62-0.08-1.03l0.65-2.36l4.16,0.45l3.12-6.4c0.17-0.3,0.39-0.51,0.66-0.62
			c0.27-0.12,0.59-0.12,0.94-0.03l3.08,0.85l-2.15,7.79l6.6,1.82l-1.17,4.24l-6.6-1.82l-3.7,13.4c-0.21,0.77-0.19,1.43,0.07,1.96
			c0.26,0.54,0.72,0.9,1.38,1.08c0.37,0.1,0.69,0.14,0.96,0.12c0.27-0.02,0.52-0.05,0.73-0.1c0.21-0.04,0.4-0.09,0.57-0.14
			c0.17-0.05,0.33-0.05,0.47-0.01c0.18,0.05,0.31,0.13,0.4,0.25s0.17,0.29,0.25,0.5l0.99,3.38c-1.07,0.48-2.21,0.75-3.44,0.81
			C174.94,466.48,173.73,466.34,172.52,466.01z"/>
		<path class="st0" d="M221.59,447.84l-17.6,30.9c-0.23,0.41-0.5,0.71-0.82,0.9c-0.32,0.19-0.77,0.25-1.37,0.18l-4.57-0.52
			l5.94-9.69l-7.61-24.75l5.39,0.62c0.48,0.05,0.84,0.21,1.09,0.48c0.25,0.26,0.42,0.55,0.52,0.86l3.9,13.83
			c0.13,0.47,0.23,0.93,0.31,1.39c0.07,0.46,0.14,0.93,0.2,1.41c0.2-0.45,0.4-0.89,0.6-1.33c0.2-0.44,0.42-0.87,0.65-1.3l6.62-12.6
			c0.17-0.32,0.42-0.56,0.75-0.74c0.33-0.18,0.69-0.25,1.07-0.21L221.59,447.84z"/>
		<path class="st0" d="M266.67,471.22c-2.21,0.31-4-0.08-5.35-1.16c-1.35-1.08-2.18-2.72-2.49-4.92l-1.97-14.19l-2.6,0.36
			c-0.33,0.05-0.63-0.02-0.89-0.21c-0.26-0.18-0.42-0.49-0.48-0.92l-0.34-2.43l3.99-1.23l0.33-7.11c0.04-0.34,0.16-0.62,0.36-0.83
			s0.49-0.35,0.85-0.4l3.17-0.44l1.11,8l6.79-0.94l0.6,4.36l-6.79,0.94l1.91,13.77c0.11,0.79,0.39,1.38,0.84,1.78
			c0.45,0.39,1.01,0.54,1.69,0.45c0.38-0.05,0.69-0.14,0.93-0.27c0.24-0.12,0.45-0.25,0.63-0.38c0.18-0.12,0.33-0.24,0.47-0.36
			c0.14-0.11,0.28-0.18,0.43-0.2c0.18-0.03,0.34,0,0.46,0.07s0.27,0.19,0.43,0.36l2.24,2.72c-0.79,0.87-1.73,1.57-2.84,2.11
			C269.08,470.69,267.91,471.04,266.67,471.22z"/>
		<path class="st0" d="M288.96,442.71c0.68-1.19,1.51-2.23,2.49-3.14c0.98-0.91,2.24-1.6,3.78-2.08c1.34-0.41,2.59-0.55,3.77-0.41
			c1.17,0.14,2.24,0.51,3.18,1.12s1.77,1.43,2.48,2.46c0.71,1.03,1.27,2.23,1.69,3.6l4.79,15.61l-5.9,1.81l-4.79-15.61
			c-0.46-1.5-1.16-2.55-2.1-3.16c-0.94-0.61-2.11-0.7-3.51-0.27c-1.02,0.31-1.9,0.84-2.66,1.57c-0.75,0.74-1.4,1.62-1.95,2.67
			l5.44,17.73l-5.9,1.81l-10.9-35.51l5.9-1.81L288.96,442.71z"/>
		<path class="st0" d="M328.12,439.4c0.69,1.12,1.42,2.03,2.19,2.71c0.77,0.68,1.56,1.16,2.38,1.44c0.82,0.28,1.67,0.37,2.54,0.26
			c0.87-0.1,1.76-0.39,2.64-0.85c0.89-0.46,1.6-0.96,2.14-1.5s0.98-1.06,1.33-1.56c0.35-0.5,0.65-0.95,0.91-1.34
			s0.55-0.68,0.89-0.86c0.46-0.24,0.89-0.24,1.29-0.02l2.61,1.18c-0.24,1.02-0.61,1.97-1.12,2.84c-0.51,0.87-1.1,1.66-1.77,2.38
			c-0.67,0.71-1.4,1.35-2.19,1.91c-0.79,0.56-1.58,1.04-2.38,1.46c-1.58,0.82-3.19,1.32-4.83,1.5s-3.22,0.01-4.76-0.49
			s-2.99-1.37-4.35-2.59s-2.56-2.83-3.59-4.83c-0.8-1.55-1.31-3.15-1.51-4.78c-0.21-1.63-0.1-3.2,0.32-4.7s1.15-2.9,2.2-4.19
			c1.05-1.29,2.42-2.38,4.13-3.26c1.44-0.74,2.88-1.2,4.33-1.37c1.45-0.17,2.84-0.04,4.17,0.39c1.33,0.43,2.57,1.16,3.73,2.18
			c1.16,1.02,2.16,2.36,3.01,4c0.43,0.83,0.63,1.43,0.6,1.81c-0.03,0.38-0.29,0.7-0.8,0.96L328.12,439.4z M336.87,430.68
			c-0.37-0.71-0.81-1.33-1.34-1.85s-1.11-0.92-1.75-1.19c-0.65-0.27-1.35-0.38-2.1-0.33c-0.76,0.04-1.54,0.28-2.36,0.7
			c-1.58,0.82-2.6,1.92-3.04,3.29s-0.36,2.96,0.24,4.74L336.87,430.68z"/>
		<path class="st0" d="M356.29,411.73c-0.26-1.71-0.21-3.24,0.16-4.6c0.37-1.36,1.16-2.48,2.37-3.37c0.95-0.7,1.87-1.05,2.76-1.06
			l2.41,3.97c0.11,0.29,0.14,0.53,0.08,0.73c-0.05,0.19-0.19,0.37-0.4,0.53c-0.2,0.15-0.53,0.33-0.97,0.56
			c-0.45,0.22-0.86,0.47-1.23,0.75c-0.55,0.4-0.98,0.85-1.29,1.32c-0.31,0.48-0.53,0.99-0.65,1.54c-0.12,0.55-0.15,1.14-0.1,1.76
			c0.05,0.62,0.17,1.29,0.34,2.01l9.35,12.74l-4.98,3.65l-15.17-20.68l2.92-2.14c0.51-0.37,0.93-0.54,1.27-0.51s0.71,0.26,1.12,0.68
			L356.29,411.73z"/>
		<path class="st0" d="M372.92,397.41c0.19-4,1.75-7.46,4.69-10.38c1.06-1.06,2.19-1.83,3.37-2.32s2.38-0.71,3.57-0.66
			c1.2,0.04,2.37,0.35,3.53,0.91c1.16,0.56,2.25,1.36,3.27,2.39l11.43,11.48l-1.98,1.98c-0.41,0.41-0.79,0.67-1.14,0.77
			c-0.35,0.1-0.77,0.03-1.28-0.22l-1.69-0.92c-0.05,0.87-0.14,1.68-0.26,2.43s-0.32,1.46-0.58,2.15c-0.26,0.68-0.6,1.35-1.03,1.99
			c-0.43,0.65-0.96,1.29-1.61,1.94c-0.77,0.76-1.58,1.37-2.44,1.81c-0.85,0.44-1.73,0.69-2.61,0.75c-0.88,0.06-1.76-0.09-2.63-0.45
			c-0.87-0.36-1.71-0.94-2.52-1.76c-0.46-0.46-0.84-0.99-1.14-1.6c-0.3-0.61-0.48-1.29-0.54-2.05c-0.06-0.76,0-1.6,0.19-2.52
			c0.19-0.92,0.56-1.92,1.09-2.99s1.26-2.24,2.16-3.48c0.9-1.24,2.03-2.57,3.38-3.98l-1.06-1.06c-1.21-1.22-2.37-1.86-3.47-1.93
			c-1.1-0.07-2.14,0.39-3.12,1.36c-0.71,0.71-1.21,1.37-1.52,2c-0.3,0.63-0.53,1.22-0.68,1.78c-0.15,0.56-0.29,1.07-0.41,1.52
			c-0.12,0.45-0.36,0.86-0.72,1.21c-0.31,0.31-0.65,0.48-1.02,0.54c-0.37,0.05-0.73,0.04-1.07-0.05L372.92,397.41z M390.79,395.31
			c-1.21,1.32-2.16,2.48-2.86,3.5s-1.19,1.91-1.46,2.67c-0.27,0.77-0.36,1.43-0.25,1.98c0.1,0.55,0.35,1.03,0.74,1.42
			c0.76,0.77,1.54,1.09,2.32,0.97c0.78-0.12,1.54-0.55,2.27-1.28c0.9-0.89,1.51-1.83,1.84-2.81c0.33-0.98,0.48-2.11,0.45-3.39
			L390.79,395.31z"/>
		<path class="st0" d="M400.78,366.34c-0.36-1.54-0.46-3.07-0.29-4.58c0.17-1.51,0.77-3,1.8-4.48c0.81-1.14,1.78-2.02,2.92-2.63
			s2.41-0.94,3.8-0.99c1.39-0.05,2.88,0.2,4.48,0.76c1.59,0.56,3.25,1.44,4.97,2.65c1.57,1.1,2.87,2.34,3.91,3.7
			c1.04,1.36,1.77,2.78,2.2,4.26c0.43,1.47,0.53,2.96,0.3,4.46s-0.83,2.94-1.8,4.31c-0.83,1.17-1.71,2.05-2.66,2.62
			c-0.95,0.58-1.97,0.97-3.07,1.17l8.59,6.04l-3.55,5.05l-27.83-19.58l2.17-3.09c0.46-0.65,1.07-0.87,1.83-0.64L400.78,366.34z
			 M413.65,374.99c1.1-0.08,2.03-0.36,2.79-0.83c0.76-0.47,1.42-1.11,1.98-1.9c0.54-0.76,0.88-1.55,1.02-2.37
			c0.15-0.82,0.08-1.64-0.21-2.49c-0.28-0.84-0.79-1.69-1.52-2.55c-0.73-0.86-1.7-1.72-2.91-2.57c-1.23-0.86-2.34-1.5-3.33-1.9
			c-0.99-0.4-1.88-0.61-2.67-0.61c-0.79-0.01-1.49,0.17-2.11,0.52c-0.61,0.35-1.16,0.86-1.63,1.53c-0.74,1.05-1.14,2.1-1.22,3.15
			c-0.07,1.05,0.06,2.18,0.4,3.4L413.65,374.99z"/>
		<path class="st0" d="M411.49,327.4c0.48,0.24,0.87,0.56,1.19,0.97c0.32,0.4,0.55,0.84,0.7,1.32c0.15,0.48,0.21,0.98,0.18,1.5
			c-0.03,0.53-0.17,1.03-0.42,1.53c-0.24,0.48-0.56,0.88-0.96,1.21c-0.4,0.33-0.83,0.57-1.31,0.73s-0.96,0.22-1.47,0.2
			c-0.51-0.03-1-0.16-1.48-0.4c-0.49-0.25-0.9-0.57-1.24-0.98c-0.34-0.4-0.58-0.84-0.74-1.31c-0.15-0.47-0.22-0.96-0.19-1.48
			c0.03-0.52,0.16-1.02,0.4-1.49c0.25-0.49,0.57-0.91,0.98-1.24c0.4-0.34,0.84-0.59,1.32-0.75c0.47-0.16,0.98-0.23,1.5-0.21
			C410.49,327.02,411,327.15,411.49,327.4z M417.78,331.53l22.9,11.56l-2.79,5.53l-22.9-11.56L417.78,331.53z"/>
		<path class="st0" d="M438.75,317c1.28,0.33,2.43,0.47,3.46,0.43c1.03-0.04,1.93-0.25,2.71-0.62c0.78-0.37,1.45-0.89,2.01-1.58
			c0.56-0.68,0.99-1.5,1.31-2.45c0.32-0.95,0.48-1.8,0.49-2.56c0.01-0.76-0.03-1.45-0.13-2.05c-0.1-0.6-0.19-1.14-0.28-1.6
			c-0.09-0.46-0.08-0.87,0.05-1.24c0.17-0.49,0.47-0.79,0.91-0.91l2.7-0.96c0.54,0.9,0.93,1.84,1.17,2.82s0.37,1.96,0.38,2.94
			s-0.07,1.95-0.25,2.9c-0.18,0.95-0.41,1.85-0.7,2.71c-0.57,1.69-1.38,3.17-2.43,4.43s-2.3,2.25-3.76,2.95
			c-1.46,0.71-3.1,1.09-4.93,1.16c-1.83,0.07-3.81-0.25-5.94-0.97c-1.66-0.56-3.13-1.35-4.41-2.38c-1.28-1.03-2.29-2.23-3.04-3.59
			c-0.74-1.37-1.19-2.88-1.33-4.54s0.09-3.39,0.7-5.21c0.52-1.53,1.24-2.86,2.16-3.99c0.93-1.13,2.02-2,3.27-2.62
			c1.25-0.62,2.65-0.96,4.2-1.03c1.54-0.07,3.19,0.19,4.95,0.78c0.88,0.3,1.45,0.59,1.69,0.89s0.28,0.71,0.09,1.25L438.75,317z
			 M438.98,304.65c-0.76-0.25-1.51-0.39-2.25-0.4c-0.74-0.01-1.44,0.11-2.09,0.37c-0.65,0.26-1.23,0.66-1.74,1.22
			c-0.51,0.56-0.92,1.27-1.21,2.14c-0.57,1.69-0.54,3.18,0.1,4.48c0.64,1.29,1.79,2.38,3.47,3.24L438.98,304.65z"/>
		<path class="st0" d="M441.89,267.9c0.24,0.21,0.39,0.41,0.47,0.61c0.08,0.2,0.09,0.44,0.05,0.72c-0.05,0.3-0.18,0.6-0.4,0.91
			c-0.22,0.31-0.47,0.67-0.74,1.08s-0.54,0.89-0.8,1.43s-0.45,1.2-0.57,1.97c-0.19,1.2-0.09,2.18,0.31,2.95
			c0.4,0.77,1.01,1.21,1.83,1.35c0.54,0.09,1.03-0.02,1.46-0.31c0.43-0.29,0.83-0.71,1.2-1.25c0.37-0.54,0.73-1.16,1.07-1.87
			c0.34-0.7,0.71-1.42,1.09-2.14c0.39-0.72,0.81-1.43,1.27-2.11c0.46-0.69,0.99-1.28,1.6-1.78s1.31-0.87,2.09-1.11
			c0.78-0.24,1.68-0.27,2.7-0.11c1.22,0.2,2.31,0.6,3.26,1.2c0.96,0.6,1.74,1.39,2.35,2.37c0.61,0.98,1.02,2.13,1.24,3.45
			c0.22,1.33,0.19,2.81-0.07,4.46c-0.14,0.87-0.36,1.71-0.65,2.52c-0.29,0.81-0.64,1.57-1.04,2.29c-0.4,0.72-0.85,1.37-1.33,1.96
			s-0.99,1.09-1.51,1.52l-2.09-1.78c-0.25-0.23-0.43-0.48-0.54-0.75c-0.11-0.27-0.13-0.6-0.07-0.97s0.23-0.72,0.49-1.02
			c0.27-0.3,0.56-0.66,0.88-1.06c0.32-0.4,0.63-0.89,0.94-1.46c0.31-0.57,0.54-1.31,0.69-2.23c0.12-0.72,0.13-1.36,0.04-1.91
			s-0.25-1.01-0.47-1.39c-0.23-0.38-0.51-0.68-0.85-0.9c-0.35-0.22-0.71-0.36-1.11-0.42c-0.59-0.1-1.11,0-1.54,0.3
			c-0.44,0.29-0.84,0.71-1.21,1.25s-0.73,1.17-1.08,1.88c-0.34,0.71-0.71,1.44-1.1,2.18c-0.39,0.74-0.82,1.46-1.3,2.15
			c-0.47,0.69-1.03,1.29-1.67,1.78c-0.64,0.5-1.38,0.86-2.23,1.08c-0.85,0.23-1.83,0.25-2.95,0.07c-1.04-0.17-1.99-0.53-2.86-1.1
			c-0.87-0.56-1.59-1.3-2.16-2.21c-0.57-0.91-0.97-2-1.2-3.26s-0.21-2.67,0.04-4.24c0.28-1.74,0.83-3.29,1.63-4.62
			c0.81-1.34,1.76-2.41,2.85-3.21L441.89,267.9z"/>
	</g>
</g>
</svg>
