<?xml version="1.0" encoding="utf-8"?>
<!-- Generator: Adobe Illustrator 27.0.0, SVG Export Plug-In . SVG Version: 6.00 Build 0)  -->
<svg version="1.1" id="Layer_1" xmlns="http://www.w3.org/2000/svg" xmlns:xlink="http://www.w3.org/1999/xlink" x="0px" y="0px"
	 viewBox="0 0 491.08 491.08" style="enable-background:new 0 0 491.08 491.08;" xml:space="preserve">
<style type="text/css">
	.st0{fill:#F4ECDC;}
	.st1{fill:#395F50;}
</style>
<circle class="st0" cx="245.54" cy="245.54" r="245.54"/>
<g>
	<path class="st1" d="M262.01,248.38c-1.69-2.59-3.68-4.98-5.94-7.07c1.54-1.72,2.83-3.68,3.74-5.78c0.59-1.36,0.45-3.11-1.02-3.89
		c-1.23-0.65-3.25-0.43-3.89,1.02c-0.57,1.3-1.26,2.54-2.1,3.69c-0.02,0.03-0.11,0.14-0.17,0.22c-0.06,0.08-0.15,0.19-0.17,0.22
		c-0.22,0.26-0.44,0.52-0.67,0.78c-0.49,0.54-1.01,1.05-1.55,1.54c-0.26,0.23-0.52,0.45-0.78,0.67c-0.03,0.03-0.12,0.09-0.17,0.14
		c-0.09,0.07-0.19,0.14-0.28,0.21c-0.59,0.43-1.21,0.84-1.84,1.21c-0.6,0.35-1.21,0.68-1.83,0.99c-0.27,0.13-0.55,0.26-0.82,0.38
		c-0.02,0.01-0.04,0.02-0.05,0.02c-0.24,0.1-0.49,0.19-0.73,0.28c-1.35,0.49-2.73,0.87-4.15,1.13c-0.24,0.04-0.48,0.08-0.72,0.12
		c-0.04,0-0.58,0.06-0.71,0.08c-0.9,0.08-1.8,0.11-2.7,0.1c-0.8-0.01-1.6-0.06-2.39-0.13c-0.15-0.01-0.3-0.03-0.45-0.05
		c-0.06-0.01-0.1-0.01-0.12-0.01c0,0-0.01,0-0.01,0c-0.44-0.06-0.89-0.14-1.33-0.22c-1.67-0.32-3.32-0.78-4.92-1.36
		c-0.38-0.14-0.75-0.28-1.13-0.43c-0.26-0.1-0.49-0.2-0.99-0.43c-0.82-0.38-1.63-0.79-2.43-1.23c-1.68-0.93-3.27-1.98-4.8-3.14
		c-1.19-0.9-3.23-0.23-3.89,1.02c-0.79,1.5-0.25,2.93,1.02,3.89c1.35,1.02,2.77,1.96,4.24,2.81l-3.03,11.83
		c-0.37,1.44,0.47,3.15,1.98,3.49c1.48,0.34,3.1-0.44,3.49-1.98l2.77-10.82c3.49,1.37,7.17,2.22,10.93,2.41
		c0.33,0.02,0.66,0.03,1,0.03c0.25,3.26,0.98,6.48,2.22,9.51c0.56,1.37,1.91,2.5,3.49,1.98c1.32-0.43,2.58-2.02,1.98-3.49
		c-1.17-2.87-1.83-5.61-2.04-8.49c3.83-0.74,7.49-2.28,10.71-4.52c0.83,0.75,1.62,1.52,2.38,2.35c1.23,1.35,1.95,2.3,2.95,3.82
		c0.81,1.24,2.55,1.88,3.89,1.02C262.23,251.47,262.88,249.71,262.01,248.38z"/>
	<path class="st1" d="M355.25,235.03c-2.18-2.28-4.53-4.37-7.01-6.3c1.16-1.49,2.16-3.11,2.93-4.82c0.61-1.35,0.43-3.12-1.02-3.89
		c-1.24-0.66-3.23-0.43-3.89,1.02c-0.51,1.12-1.09,2.19-1.78,3.21c-0.17,0.25-0.35,0.5-0.53,0.75c-0.02,0.03-0.04,0.05-0.05,0.07
		c-0.08,0.1-0.15,0.19-0.23,0.29c-0.42,0.51-0.86,0.99-1.31,1.46c-0.43,0.44-0.88,0.86-1.34,1.26c-0.2,0.17-0.4,0.34-0.6,0.51
		c-0.02,0.02-0.04,0.04-0.06,0.05c-0.14,0.1-0.27,0.2-0.41,0.3c-1.03,0.74-2.12,1.39-3.26,1.94c-0.12,0.06-0.24,0.11-0.36,0.17
		c-0.03,0.01-0.16,0.07-0.25,0.12c-0.11,0.04-0.44,0.18-0.52,0.21c-0.61,0.23-1.24,0.44-1.87,0.61c-0.6,0.17-1.21,0.31-1.82,0.42
		c-0.14,0.02-0.28,0.05-0.41,0.07c-0.04,0.01-0.07,0.01-0.09,0.02c-0.32,0.04-0.64,0.07-0.96,0.09c-1.35,0.1-2.71,0.06-4.05-0.08
		c-0.02,0-0.04,0-0.06-0.01c-0.14-0.02-0.29-0.04-0.43-0.07c-0.32-0.05-0.64-0.12-0.96-0.19c-0.64-0.14-1.27-0.3-1.9-0.49
		c-1.62-0.5-2.22-0.76-3.69-1.58c-0.65-0.36-1.28-0.76-1.89-1.19c-0.11-0.08-0.23-0.16-0.34-0.24c-0.05-0.03-0.09-0.06-0.12-0.09
		c-0.02-0.01-0.04-0.03-0.08-0.07c-0.33-0.26-0.64-0.54-0.96-0.82c-1.1-0.99-2.94-1.17-4.02,0c-1,1.09-1.18,2.96,0,4.02
		c1.26,1.13,2.63,2.14,4.08,3c-1.78,3.22-3.02,6.75-3.62,10.38c-0.24,1.46,0.38,3.13,1.98,3.49c1.37,0.31,3.24-0.42,3.49-1.98
		c0.59-3.57,1.64-6.56,3.35-9.54c2.56,0.82,5.25,1.24,7.97,1.21c0.22,0,0.44-0.01,0.65-0.02c0.94,2.98,1.88,5.96,2.82,8.94
		c0.45,1.42,2,2.47,3.49,1.98c1.42-0.46,2.46-1.98,1.98-3.49c-0.88-2.79-1.76-5.58-2.63-8.36c3.18-0.92,6.17-2.49,8.77-4.59
		c2.38,1.81,4.82,4,7,6.28c1.03,1.08,3,1.11,4.02,0C356.31,237.89,356.35,236.18,355.25,235.03z"/>
	<path class="st1" d="M299.26,323c-1.29-0.68-3.17-0.4-3.89,1.02c-0.32,0.63-0.66,1.25-1.04,1.84c-0.19,0.3-0.39,0.59-0.6,0.88
		c-0.06,0.09-0.13,0.18-0.2,0.27c-0.01,0.01-0.06,0.08-0.17,0.21c-0.88,1.01-1.8,1.93-2.81,2.8c-0.09,0.07-0.15,0.12-0.18,0.15
		c-0.1,0.07-0.19,0.14-0.29,0.21c-0.29,0.21-0.58,0.41-0.88,0.6c-0.59,0.38-1.21,0.73-1.84,1.05c-0.27,0.14-0.54,0.27-0.82,0.39
		c0.11-0.06-0.6,0.24-0.69,0.27c-0.62,0.23-1.26,0.42-1.9,0.58c-0.31,0.08-0.61,0.15-0.92,0.21c-0.08,0.02-0.81,0.14-0.79,0.14
		c-0.69,0.09-1.39,0.13-2.09,0.13c-0.75,0.01-1.5-0.05-2.25-0.1c-0.17-0.02-0.26-0.03-0.28-0.03c-0.12-0.02-0.24-0.04-0.36-0.06
		c-0.32-0.06-0.65-0.12-0.97-0.19c-0.69-0.15-1.37-0.34-2.04-0.56c-0.36-0.12-0.71-0.25-1.06-0.38c-0.07-0.03-0.13-0.05-0.17-0.07
		c-0.15-0.07-0.3-0.13-0.45-0.2c-0.68-0.32-1.34-0.68-1.98-1.07c-0.32-0.2-0.63-0.4-0.94-0.62c-0.14-0.1-0.28-0.2-0.41-0.3
		c-0.04-0.03-0.08-0.06-0.14-0.11c-1.16-0.93-2.9-1.21-4.02,0c-0.95,1.03-1.24,3.02,0,4.02c4.34,3.49,9.72,5.48,15.32,5.35
		c5.39-0.13,10.47-2.23,14.53-5.74c2.17-1.88,4.01-4.23,5.3-6.8C300.95,325.57,300.67,323.75,299.26,323z"/>
	<path class="st1" d="M174.84,244.05c8.28,3.1,13.09,11.5,14.22,20.2c0.97,7.5-1.12,19.4-11.23,17.25
		c-8.36-1.77-13.29-9.73-12.36-17.93C166.28,256.31,170.21,249.85,174.84,244.05z M36.35,307.33c0.27-1.62,0.61-3.24,1-4.84
		c0.72-2.97,1.65-5.87,2.76-8.73c1.4-3.61,3.11-7.1,5.1-10.47c5.53-9.32,13.14-17.31,22.32-23.12c1.62-1.03,2.15-3.47,0.62-4.87
		c-18.46-17.08-21.02-44.98-12.41-67.62c9.71-25.5,34.25-40.98,60.25-45.9c15.3-2.9,31.25-2.28,46.39,1.27
		c1.65,0.39,3.34-0.51,3.82-2.17c12.41-42.47,49.58-74.53,93.56-80.06c6.88-0.87,14.03-1.18,21.16-0.8
		c13.93,0.72,27.83,4.04,39.76,10.86c0.8,0.46,1.59,0.92,2.37,1.41c7.96,4.98,15.3,12.02,18.53,21.03
		c3.61,10.08,1.56,20.74-3.71,29.84c-11.53,19.9-34.02,30.12-54.36,38.58c-10.57,4.39-21.22,8.6-31.49,13.68
		c-10.39,5.15-20.41,11.01-29.98,17.54c-18.11,12.35-35.41,27.09-49.42,44.06c-13.54-2.48-29.43,4.75-38.78,14.48
		c-13.36,13.89-18.32,35.55-7.23,52.31c5.01,7.56,12.35,13.38,20.82,16.6c4.26,1.62,8.9,2.47,13.47,2.36
		c4.89-0.11,9.13-1.54,13.66-3.2c2.63-0.97,5.08-1.55,7.63-0.1c2.59,1.48,4.55,4.14,6.4,6.42c3.89,4.78,7.44,9.83,10.94,14.9
		c6.83,9.86,13.54,20,22.04,28.53c7.68,7.71,16.94,14.21,27.37,17.55c10.55,3.37,21.59,2.65,31.72-1.75
		c10.48-4.55,19.29-12.23,27.41-20.11c8.41-8.16,16.23-16.92,23.41-26.18c14.4-18.59,26.6-39.28,34.88-61.33
		c7.95-21.14,11.7-46.13,0.27-66.78c-9.36-16.94-28.34-29.73-48.21-25.14c-20.42,4.72-33.56,24.77-34.18,44.96
		c-0.35,11.45,2.82,22.91,8.21,32.96c2.63,4.91,7.07,9.9,7.43,15.69c0.28,4.63-2.7,8.67-6.41,11.13
		c-10.24,6.8-22.92,1.57-33.05-2.73c-3.64-1.55-6.81,3.81-3.13,5.36c10.38,4.41,22.54,9.53,33.86,5.42
		c8.68-3.16,16.12-11.12,14.77-20.9c-0.79-5.68-4.22-10.34-7.02-15.19c-2.75-4.77-4.91-9.84-6.37-15.16
		c-2.86-10.4-3.01-21.78,1.04-31.9c7.09-17.71,26.57-29.28,45.13-22.13c18.9,7.3,28.84,27.69,28.98,47
		c0.16,23.27-10.33,45.88-21.59,65.71c-11.15,19.64-25,37.7-41.1,53.54c-7.82,7.69-16.18,15.25-26.26,19.86
		c-9.94,4.55-20.74,4.61-30.88,0.67c-21.69-8.43-33.89-29.64-46.7-47.64c-3.29-4.64-6.68-9.27-10.46-13.52
		c-3.5-3.94-7.92-6.99-13.42-6.29c-4.96,0.64-9.27,3.53-14.32,4c-4.15,0.39-8.28-0.18-12.23-1.47c-8.11-2.65-15.27-8.46-19.64-15.77
		c-4.67-7.81-5.57-17.02-3.09-25.74c2.56-8.99,8.41-17.04,15.91-22.58c6.75-4.98,15.68-8.64,24.29-8.17
		c-5.73,7.92-10.25,17.21-8.75,27.19c1.22,8.16,8.06,15.14,15.9,17.33c9.13,2.56,17.28-2.9,19.44-11.99
		c2.27-9.54-0.25-20.72-6.21-28.48c-2.73-3.55-5.96-6.07-9.49-7.73c1.03-1.15,2.06-2.28,3.07-3.38
		c15.07-16.47,32.35-30.87,51.26-42.72c9.32-5.84,19.01-11.06,29.01-15.62c10.19-4.64,20.66-8.6,30.92-13.07
		c12.68-5.53,25.72-12.19,36.21-21.48c2.71-2.39,5.25-4.96,7.56-7.74c2.46-2.92,4.66-6.08,6.56-9.48c5.03-9.04,7.38-19.48,5.13-29.7
		c-1.29-5.86-4.07-11.25-7.78-15.95c-1.88-2.41-4-4.65-6.3-6.66c-5.57-4.89-11.89-8.71-18.65-11.62c-7.45-3.21-15.43-5.32-23.5-6.55
		c-4.85-0.74-9.72-1.16-14.52-1.32c-10.73-0.35-21.53,0.76-31.99,3.29c-11.16,2.67-21.94,6.95-31.84,12.74
		c-17.39,10.18-32.02,24.98-42.27,42.3c-4.52,7.66-8.16,15.82-10.86,24.3c-27.87-5.84-58.85-2.34-82.73,13.89
		c-6.86,4.66-12.98,10.27-18.01,16.74c-3.42,4.38-6.33,9.15-8.64,14.29c-2.57,5.72-4.48,11.76-5.65,17.94
		c-1.32,7.02-1.68,14.21-0.94,21.32c1.4,13.55,6.64,26.52,15.97,36.43c-9.65,6.88-17.57,16.04-23.11,26.48
		c-0.88,1.65-1.69,3.33-2.45,5.03c-0.9,2.05-1.73,4.15-2.44,6.29L36.35,307.33z"/>
</g>
<g>
	<path class="st1" d="M458.05,294.6c-0.73-2.14-1.55-4.24-2.48-6.3c-0.75-1.69-1.56-3.35-2.43-4.98
		c-5.53-10.39-13.43-19.51-23.05-26.36c9.33-9.92,14.57-22.89,15.97-36.44c0.7-6.85,0.4-13.79-0.81-20.56
		c-1.14-6.44-3.1-12.75-5.78-18.7c-2.41-5.37-5.5-10.35-9.11-14.89c-4.93-6.23-10.89-11.63-17.53-16.15
		c-21.9-14.87-49.77-19.06-75.74-15.15c-2.34,0.35-4.68,0.77-6.99,1.26c-0.18-0.56-0.38-1.12-0.56-1.68
		c-0.88,2.68-1.91,5.33-3.03,8.03c0.68,0.36,1.48,0.48,2.28,0.29c0.25-0.06,0.49-0.11,0.74-0.17c14.93-3.41,30.59-3.96,45.65-1.11
		c26,4.93,50.55,20.41,60.25,45.9c8.61,22.64,6.05,50.54-12.41,67.62c-1.52,1.4-1,3.85,0.62,4.88c9.18,5.8,16.79,13.79,22.32,23.12
		c1.97,3.32,3.65,6.78,5.05,10.33c1.11,2.84,2.04,5.72,2.76,8.66c0.4,1.61,0.75,3.23,1.02,4.86L458.05,294.6z"/>
</g>
<g>
	<path class="st1" d="M399.7,91.38c-23.95-23.95-52.5-41.65-83.65-52.25c-7.68-2.63-15.52-4.81-23.5-6.55
		c-15.27-3.35-31-5.06-47.01-5.06c-58.24,0-112.99,22.68-154.17,63.86C50.2,132.56,27.52,187.3,27.52,245.55
		c0,12.29,1.01,24.44,3,36.32c0.72,4.36,1.57,8.68,2.56,12.97c0.93,4.07,1.98,8.1,3.15,12.1c0.04,0.13,0.08,0.26,0.11,0.4
		c2.15,7.33,4.7,14.52,7.6,21.56c3.43,8.3,7.38,16.38,11.85,24.22c1.62,2.85,3.31,5.68,5.08,8.46c1.1,1.75,2.22,3.49,3.38,5.21
		c7.86,11.7,16.92,22.72,27.11,32.92c41.18,41.18,95.93,63.86,154.17,63.86c58.23,0,112.98-22.68,154.16-63.86
		c10.22-10.22,19.31-21.28,27.18-33.02c1.16-1.72,2.28-3.46,3.38-5.21c1.74-2.75,3.41-5.53,5.01-8.35c4.39-7.73,8.3-15.7,11.7-23.88
		c3.01-7.24,5.63-14.62,7.81-22.16c0.08-0.25,0.16-0.52,0.23-0.77c1.12-3.85,2.12-7.74,3.02-11.67c0.01-0.01,0.01-0.02,0.01-0.04
		c0.99-4.3,1.84-8.66,2.56-13.04c1.96-11.79,2.95-23.83,2.95-36.02C463.56,187.3,440.88,132.56,399.7,91.38z M428.45,350.65
		c-2.59,4.5-5.35,8.89-8.24,13.16c-37.99,55.92-102.11,92.73-174.66,92.73c-72.51,0-136.6-36.76-174.6-92.63
		c-2.92-4.3-5.69-8.71-8.3-13.23c-10.12-17.53-17.79-36.67-22.54-56.91c-0.8-3.38-1.51-6.8-2.13-10.25
		c-0.22-1.19-0.43-2.37-0.62-3.56c-0.76-4.6-1.37-9.25-1.83-13.94c-0.65-6.73-0.98-13.57-0.98-20.48c0-24.08,4.05-47.22,11.51-68.79
		c3.87-11.2,8.66-21.98,14.29-32.23C96.19,79.04,165.77,34.54,245.55,34.54c0.17,0,0.33,0,0.5,0.01
		c11.88,0.02,23.53,1.04,34.88,2.96c13.75,2.33,27.04,6,39.76,10.86c6.95,2.65,13.73,5.66,20.32,9.04
		c37.73,19.21,68.94,49.44,89.37,86.44c5.9,10.67,10.9,21.9,14.89,33.59c7.31,21.37,11.28,44.29,11.28,68.11
		c0,6.82-0.32,13.57-0.97,20.22c-0.44,4.69-1.04,9.32-1.8,13.92c-0.2,1.21-0.4,2.42-0.63,3.64c-0.62,3.44-1.33,6.86-2.12,10.24
		c0.01,0.01,0,0.01,0,0.01C446.28,313.88,438.6,333.05,428.45,350.65z"/>
</g>
</svg>
