<?xml version="1.0" encoding="utf-8"?>
<!-- Generator: Adobe Illustrator 27.0.0, SVG Export Plug-In . SVG Version: 6.00 Build 0)  -->
<svg version="1.1" id="Layer_1" xmlns="http://www.w3.org/2000/svg" xmlns:xlink="http://www.w3.org/1999/xlink" x="0px" y="0px"
	 viewBox="0 0 750 750" style="enable-background:new 0 0 750 750;" xml:space="preserve">
<style type="text/css">
	.st0{fill:#FFFFFF;}
</style>
<g>
	<g>
		<g>
			<path class="st0" d="M397.43,382.39c-2.32-3.55-5.04-6.82-8.14-9.7c2.11-2.36,3.87-5.04,5.13-7.92c0.81-1.86,0.61-4.27-1.4-5.33
				c-1.68-0.89-4.46-0.6-5.33,1.4c-0.78,1.78-1.73,3.48-2.87,5.05c-0.03,0.04-0.14,0.19-0.23,0.31c-0.09,0.11-0.21,0.26-0.24,0.3
				c-0.3,0.36-0.61,0.72-0.92,1.06c-0.67,0.74-1.38,1.44-2.13,2.11c-0.35,0.32-0.71,0.61-1.07,0.92c-0.04,0.04-0.16,0.13-0.23,0.19
				c-0.13,0.1-0.25,0.19-0.38,0.29c-0.81,0.59-1.66,1.15-2.52,1.66c-0.82,0.49-1.66,0.94-2.51,1.35c-0.37,0.18-0.75,0.35-1.13,0.52
				c-0.03,0.01-0.05,0.02-0.06,0.03c-0.33,0.13-0.67,0.26-1,0.39c-1.84,0.68-3.75,1.2-5.68,1.55c-0.33,0.06-0.66,0.11-0.99,0.16
				c-0.06,0-0.79,0.09-0.98,0.1c-1.23,0.11-2.46,0.15-3.7,0.14c-1.09-0.01-2.19-0.08-3.28-0.18c-0.2-0.02-0.41-0.04-0.61-0.07
				c-0.08-0.01-0.14-0.01-0.17-0.02c-0.01,0-0.01,0-0.01,0c-0.61-0.09-1.22-0.19-1.82-0.31c-2.29-0.44-4.55-1.07-6.74-1.86
				c-0.52-0.19-1.03-0.39-1.55-0.59c-0.36-0.14-0.67-0.28-1.35-0.59c-1.13-0.52-2.24-1.08-3.33-1.69c-2.3-1.27-4.49-2.72-6.58-4.3
				c-1.63-1.23-4.42-0.31-5.33,1.4c-1.08,2.05-0.34,4.01,1.4,5.33c1.85,1.4,3.79,2.69,5.8,3.85l-4.16,16.21
				c-0.51,1.97,0.64,4.32,2.72,4.79c2.03,0.46,4.25-0.61,4.79-2.72l3.8-14.82c4.78,1.88,9.83,3.05,14.98,3.31
				c0.46,0.02,0.91,0.04,1.37,0.04c0.34,4.47,1.35,8.88,3.04,13.03c0.77,1.88,2.62,3.42,4.79,2.72c1.81-0.59,3.54-2.77,2.72-4.79
				c-1.6-3.93-2.51-7.69-2.8-11.64c5.25-1.01,10.26-3.12,14.68-6.2c1.13,1.02,2.23,2.09,3.26,3.22c1.69,1.86,2.67,3.15,4.04,5.24
				c1.11,1.7,3.5,2.58,5.33,1.4C397.73,386.63,398.62,384.22,397.43,382.39z"/>
		</g>
		<g>
			<path class="st0" d="M525.21,364.09c-2.98-3.12-6.21-5.99-9.61-8.64c1.6-2.04,2.96-4.26,4.02-6.6c0.84-1.85,0.59-4.28-1.4-5.33
				c-1.7-0.9-4.43-0.58-5.33,1.4c-0.69,1.53-1.5,3-2.44,4.4c-0.23,0.35-0.48,0.69-0.72,1.03c-0.03,0.04-0.05,0.07-0.07,0.1
				c-0.1,0.13-0.21,0.26-0.32,0.39c-0.57,0.69-1.17,1.36-1.8,2c-0.59,0.6-1.2,1.17-1.83,1.72c-0.27,0.24-0.55,0.46-0.83,0.69
				c-0.03,0.03-0.06,0.05-0.08,0.07c-0.19,0.14-0.37,0.28-0.56,0.41c-1.41,1.01-2.91,1.91-4.47,2.66c-0.16,0.08-0.32,0.15-0.49,0.23
				c-0.04,0.02-0.22,0.1-0.34,0.16c-0.15,0.06-0.6,0.24-0.71,0.29c-0.84,0.32-1.69,0.6-2.56,0.84c-0.82,0.23-1.66,0.42-2.5,0.57
				c-0.19,0.03-0.38,0.06-0.57,0.1c-0.05,0.01-0.09,0.02-0.12,0.02c-0.44,0.05-0.88,0.09-1.32,0.13c-1.85,0.13-3.71,0.08-5.55-0.12
				c-0.03,0-0.06-0.01-0.08-0.01c-0.2-0.03-0.4-0.06-0.59-0.09c-0.44-0.08-0.88-0.16-1.32-0.25c-0.88-0.19-1.74-0.41-2.6-0.68
				c-2.22-0.68-3.05-1.04-5.06-2.16c-0.89-0.5-1.76-1.04-2.6-1.63c-0.16-0.11-0.31-0.22-0.47-0.34c-0.07-0.05-0.12-0.09-0.17-0.12
				c-0.02-0.02-0.05-0.05-0.11-0.09c-0.45-0.36-0.88-0.74-1.31-1.13c-1.51-1.36-4.03-1.6-5.51,0c-1.37,1.49-1.62,4.05,0,5.51
				c1.73,1.56,3.6,2.93,5.59,4.11c-2.43,4.42-4.14,9.25-4.96,14.22c-0.33,2,0.52,4.29,2.72,4.79c1.88,0.43,4.44-0.57,4.79-2.72
				c0.81-4.9,2.24-8.99,4.59-13.08c3.51,1.13,7.2,1.71,10.92,1.65c0.3,0,0.6-0.01,0.9-0.03c1.29,4.08,2.57,8.17,3.86,12.25
				c0.61,1.94,2.74,3.38,4.79,2.72c1.95-0.63,3.37-2.71,2.72-4.79c-1.2-3.82-2.41-7.64-3.61-11.46c4.36-1.27,8.45-3.42,12.03-6.29
				c3.26,2.47,6.61,5.48,9.59,8.6c1.41,1.48,4.11,1.53,5.51,0C526.66,368.02,526.71,365.67,525.21,364.09z"/>
		</g>
		<g>
			<path class="st0" d="M448.47,484.67c-1.77-0.94-4.35-0.54-5.33,1.4c-0.44,0.86-0.91,1.71-1.43,2.53
				c-0.26,0.41-0.53,0.81-0.82,1.2c-0.09,0.12-0.18,0.24-0.27,0.37c-0.01,0.01-0.09,0.1-0.23,0.28c-1.21,1.38-2.46,2.64-3.85,3.84
				c-0.13,0.1-0.21,0.17-0.25,0.2c-0.13,0.1-0.26,0.2-0.4,0.29c-0.39,0.28-0.79,0.56-1.2,0.82c-0.81,0.52-1.66,1.01-2.52,1.44
				c-0.37,0.19-0.75,0.36-1.12,0.54c0.16-0.08-0.83,0.33-0.94,0.37c-0.85,0.31-1.72,0.58-2.6,0.8c-0.42,0.11-0.84,0.2-1.26,0.29
				c-0.11,0.02-1.11,0.19-1.08,0.19c-0.95,0.12-1.91,0.17-2.87,0.18c-1.03,0.01-2.05-0.07-3.08-0.14c-0.23-0.03-0.36-0.04-0.38-0.04
				c-0.17-0.03-0.33-0.05-0.5-0.08c-0.44-0.08-0.89-0.16-1.33-0.26c-0.94-0.21-1.87-0.46-2.79-0.76c-0.49-0.16-0.97-0.34-1.45-0.52
				c-0.1-0.04-0.17-0.07-0.23-0.09c-0.2-0.09-0.41-0.18-0.61-0.28c-0.93-0.44-1.83-0.93-2.71-1.47c-0.44-0.27-0.87-0.55-1.29-0.85
				c-0.19-0.13-0.38-0.27-0.56-0.41c-0.05-0.04-0.11-0.09-0.19-0.15c-1.58-1.28-3.98-1.66-5.51,0c-1.3,1.42-1.69,4.14,0,5.51
				c5.94,4.79,13.32,7.51,21,7.33c7.38-0.18,14.35-3.06,19.92-7.87c2.98-2.57,5.49-5.8,7.26-9.32
				C450.78,488.18,450.41,485.7,448.47,484.67z"/>
		</g>
		<g>
			<path class="st0" d="M277.94,376.46c11.35,4.25,17.94,15.76,19.5,27.68c1.34,10.28-1.54,26.58-15.39,23.65
				c-11.46-2.43-18.21-13.33-16.94-24.57C266.22,393.26,271.6,384.41,277.94,376.46z M88.14,463.2c0.37-2.23,0.83-4.44,1.37-6.63
				c0.99-4.07,2.26-8.05,3.78-11.96c1.93-4.95,4.26-9.74,6.99-14.34c7.58-12.78,18.02-23.72,30.59-31.69
				c2.23-1.41,2.95-4.75,0.85-6.68c-25.3-23.41-28.81-61.65-17-92.68c13.31-34.95,46.95-56.16,82.58-62.9
				c20.98-3.97,42.83-3.13,63.58,1.74c2.26,0.53,4.57-0.7,5.23-2.97c17-58.21,67.96-102.15,128.23-109.73
				c9.43-1.19,19.23-1.61,29-1.1c19.09,0.99,38.14,5.54,54.49,14.89c1.1,0.63,2.18,1.26,3.25,1.94
				c10.9,6.82,20.96,16.47,25.39,28.82c4.95,13.82,2.14,28.42-5.08,40.89c-15.8,27.27-46.63,41.28-74.5,52.88
				c-14.49,6.02-29.09,11.78-43.15,18.75c-14.24,7.05-27.97,15.09-41.09,24.04c-24.81,16.92-48.53,37.13-67.73,60.39
				c-18.56-3.41-40.34,6.51-53.16,19.84c-18.3,19.04-25.12,48.73-9.9,71.69c6.87,10.36,16.92,18.34,28.53,22.74
				c5.84,2.21,12.2,3.38,18.46,3.24c6.7-0.14,12.52-2.11,18.73-4.39c3.6-1.32,6.96-2.13,10.46-0.13c3.55,2.03,6.23,5.68,8.77,8.8
				c5.33,6.55,10.19,13.48,14.99,20.42c9.36,13.51,18.56,27.41,30.21,39.1c10.53,10.57,23.21,19.47,37.51,24.06
				c14.47,4.62,29.59,3.63,43.48-2.39c14.36-6.23,26.44-16.76,37.57-27.56c11.53-11.18,22.24-23.19,32.08-35.89
				c19.74-25.48,36.46-53.84,47.81-84.06c10.89-28.98,16.03-63.23,0.37-91.52c-12.83-23.21-38.85-40.75-66.08-34.45
				c-27.99,6.46-46,33.95-46.85,61.62c-0.48,15.69,3.86,31.4,11.25,45.18c3.61,6.73,9.69,13.57,10.18,21.51
				c0.39,6.34-3.71,11.88-8.79,15.26c-14.03,9.33-31.41,2.15-45.3-3.74c-4.99-2.12-9.34,5.22-4.3,7.35
				c14.22,6.04,30.89,13.06,46.4,7.43c11.9-4.33,22.09-15.25,20.24-28.64c-1.08-7.79-5.79-14.18-9.63-20.82
				c-3.77-6.53-6.73-13.49-8.74-20.77c-3.92-14.26-4.13-29.85,1.42-43.72c9.71-24.27,36.42-40.13,61.86-30.33
				c25.91,10,39.52,37.96,39.71,64.42c0.22,31.89-14.15,62.88-29.59,90.06c-15.28,26.92-34.26,51.68-56.33,73.39
				c-10.72,10.54-22.18,20.9-35.99,27.22c-13.62,6.23-28.42,6.32-42.32,0.91c-29.72-11.55-46.45-40.63-64.01-65.3
				c-4.51-6.35-9.16-12.71-14.33-18.53c-4.8-5.4-10.85-9.58-18.39-8.62c-6.8,0.88-12.71,4.84-19.63,5.49
				c-5.69,0.53-11.35-0.24-16.76-2.01c-11.12-3.63-20.93-11.59-26.92-21.61c-6.4-10.71-7.63-23.32-4.24-35.27
				c3.5-12.32,11.53-23.36,21.81-30.95c9.25-6.82,21.49-11.84,33.29-11.19c-7.86,10.85-14.04,23.59-12,37.27
				c1.67,11.18,11.05,20.75,21.79,23.76c12.52,3.51,23.68-3.97,26.64-16.43c3.1-13.08-0.35-28.4-8.51-39.03
				c-3.74-4.86-8.17-8.32-13.01-10.59c1.41-1.58,2.83-3.13,4.21-4.63c20.65-22.58,44.33-42.31,70.26-58.55
				c12.77-8,26.05-15.16,39.76-21.41c13.96-6.35,28.32-11.79,42.37-17.92c17.38-7.58,35.25-16.7,49.63-29.44
				c3.72-3.27,7.2-6.8,10.36-10.6c3.37-4.01,6.39-8.33,8.99-13c6.9-12.38,10.11-26.7,7.03-40.71c-1.77-8.03-5.58-15.42-10.66-21.87
				c-2.58-3.31-5.49-6.38-8.63-9.13c-7.63-6.7-16.29-11.94-25.56-15.92c-10.22-4.4-21.14-7.29-32.2-8.98
				c-6.64-1.01-13.32-1.59-19.9-1.81c-14.71-0.48-29.51,1.05-43.84,4.51c-15.3,3.66-30.07,9.52-43.64,17.46
				c-23.83,13.95-43.89,34.24-57.93,57.98c-6.2,10.49-11.18,21.69-14.89,33.3c-38.2-8-80.65-3.2-113.39,19.04
				c-9.4,6.39-17.79,14.08-24.68,22.95c-4.68,6.01-8.68,12.54-11.84,19.59c-3.53,7.85-6.14,16.11-7.74,24.59
				c-1.81,9.62-2.3,19.47-1.29,29.22c1.93,18.57,9.1,36.34,21.89,49.93c-13.23,9.42-24.08,21.99-31.67,36.3
				c-1.2,2.26-2.32,4.56-3.36,6.9c-1.24,2.82-2.37,5.69-3.35,8.62L88.14,463.2z"/>
		</g>
	</g>
	<g>
		<g>
			<path class="st0" d="M666.11,445.75c-1-2.94-2.13-5.81-3.39-8.64c-1.02-2.31-2.14-4.59-3.33-6.82
				c-7.58-14.24-18.41-26.74-31.59-36.13c12.79-13.6,19.96-31.37,21.89-49.94c0.96-9.39,0.55-18.89-1.11-28.17
				c-1.56-8.83-4.25-17.47-7.92-25.63c-3.31-7.36-7.53-14.19-12.49-20.41c-6.76-8.53-14.92-15.95-24.03-22.13
				c-30.01-20.39-68.21-26.13-103.81-20.76c-3.21,0.48-6.41,1.06-9.58,1.72c-0.24-0.77-0.52-1.53-0.77-2.3
				c-1.2,3.67-2.61,7.3-4.15,11.01c0.93,0.49,2.03,0.66,3.13,0.4c0.34-0.08,0.67-0.16,1.01-0.23c20.46-4.67,41.93-5.43,62.57-1.52
				c35.63,6.75,69.28,27.97,82.58,62.9c11.81,31.04,8.29,69.27-17,92.68c-2.08,1.93-1.37,5.27,0.85,6.69
				c12.58,7.95,23.01,18.89,30.59,31.69c2.7,4.55,5.01,9.29,6.92,14.16c1.52,3.89,2.79,7.85,3.78,11.87c0.55,2.2,1.02,4.43,1.4,6.67
				L666.11,445.75z"/>
		</g>
	</g>
	<g>
		<g>
			<path class="st0" d="M586.14,167.21c-32.83-32.83-71.95-57.09-114.65-71.62c-10.53-3.6-21.28-6.59-32.2-8.98
				c-20.93-4.59-42.49-6.93-64.43-6.93c-79.82,0-154.86,31.08-211.3,87.53c-56.44,56.44-87.53,131.47-87.53,211.3
				c0,16.85,1.38,33.49,4.12,49.79c0.99,5.98,2.15,11.9,3.51,17.77c1.28,5.58,2.72,11.11,4.32,16.58c0.05,0.18,0.11,0.36,0.16,0.54
				c2.95,10.05,6.44,19.9,10.42,29.56c4.71,11.37,10.12,22.46,16.23,33.19c2.23,3.91,4.54,7.79,6.97,11.6
				c1.5,2.39,3.04,4.78,4.63,7.14c10.77,16.04,23.19,31.14,37.16,45.12c56.44,56.44,131.47,87.53,211.3,87.53
				c79.81,0,154.85-31.08,211.29-87.53c14.01-14.01,26.46-29.17,37.26-45.26c1.59-2.36,3.13-4.74,4.63-7.14
				c2.38-3.77,4.67-7.58,6.87-11.44c6.02-10.59,11.37-21.52,16.03-32.73c4.13-9.92,7.71-20.04,10.71-30.37
				c0.11-0.35,0.22-0.71,0.31-1.06c1.53-5.28,2.91-10.61,4.14-15.99c0.01-0.01,0.01-0.02,0.01-0.05c1.36-5.9,2.53-11.87,3.51-17.87
				c2.68-16.16,4.04-32.66,4.04-49.36C673.67,298.69,642.58,223.65,586.14,167.21z M625.54,522.56c-3.55,6.16-7.33,12.18-11.3,18.04
				c-52.07,76.65-139.95,127.09-239.39,127.09c-99.38,0-187.22-50.39-239.3-126.96c-4.01-5.9-7.8-11.94-11.37-18.14
				c-13.88-24.03-24.38-50.26-30.89-77.99c-1.1-4.63-2.07-9.33-2.92-14.04c-0.3-1.62-0.59-3.25-0.85-4.87
				c-1.05-6.31-1.88-12.67-2.5-19.11c-0.89-9.23-1.35-18.59-1.35-28.06c0-33,5.55-64.72,15.78-94.28
				c5.31-15.36,11.87-30.12,19.58-44.18c49.14-89.75,144.5-150.74,253.84-150.74c0.23,0,0.46,0,0.69,0.01
				c16.28,0.02,32.25,1.42,47.8,4.06c18.85,3.19,37.07,8.22,54.49,14.89c9.53,3.63,18.82,7.76,27.85,12.38
				c51.71,26.33,94.49,67.77,122.49,118.47c8.09,14.62,14.93,30.01,20.41,46.04c10.02,29.29,15.46,60.7,15.46,93.35
				c0,9.35-0.45,18.59-1.32,27.71c-0.6,6.43-1.43,12.78-2.47,19.07c-0.28,1.66-0.55,3.32-0.87,4.98c-0.85,4.72-1.82,9.4-2.91,14.03
				c0.01,0.01,0,0.01,0,0.01C649.98,472.16,639.45,498.44,625.54,522.56z"/>
		</g>
	</g>
	<g>
		<path class="st0" d="M278.33,36.03c0.4-2.15,1.1-3.94,2.11-5.38c1-1.44,2.42-2.41,4.25-2.92c0.62-0.17,1.23-0.27,1.83-0.28
			c0.6-0.01,1.14,0.06,1.64,0.23l0.79,4.27c0.01,0.55-0.23,0.89-0.72,1.02c-0.26,0.07-0.68,0.13-1.23,0.17
			c-0.56,0.04-1.14,0.15-1.74,0.32c-0.89,0.25-1.64,0.59-2.25,1.04c-0.61,0.44-1.11,0.99-1.51,1.64c-0.4,0.65-0.71,1.4-0.92,2.24
			c-0.21,0.84-0.37,1.78-0.47,2.8l5.01,18.02l-5.52,1.54l-8-28.79l3.17-0.88c0.6-0.17,1.05-0.17,1.32-0.02
			c0.28,0.16,0.54,0.5,0.79,1.02L278.33,36.03z"/>
		<path class="st0" d="M338.68,9.48c0.06,0.53,0,1.04-0.16,1.54s-0.4,0.95-0.73,1.35c-0.32,0.4-0.71,0.73-1.18,0.99
			c-0.46,0.26-0.96,0.42-1.49,0.47c-0.53,0.06-1.03,0.01-1.52-0.14c-0.49-0.15-0.94-0.39-1.33-0.71c-0.4-0.32-0.73-0.71-0.98-1.16
			c-0.26-0.46-0.41-0.95-0.47-1.47c-0.06-0.55-0.01-1.07,0.14-1.57c0.15-0.5,0.39-0.95,0.71-1.35c0.32-0.4,0.7-0.73,1.15-0.98
			c0.45-0.26,0.93-0.41,1.46-0.47s1.04-0.01,1.55,0.14c0.51,0.15,0.96,0.39,1.36,0.71c0.4,0.32,0.73,0.71,1,1.16
			C338.46,8.43,338.62,8.93,338.68,9.48z M338.6,18.77l3.24,29.7l-5.7,0.62l-3.24-29.7L338.6,18.77z"/>
		<path class="st0" d="M405.04,23.18c-0.17,0.25-0.35,0.42-0.53,0.51s-0.41,0.14-0.68,0.12c-0.31-0.02-0.65-0.15-1.02-0.38
			s-0.82-0.5-1.34-0.78c-0.52-0.29-1.14-0.56-1.85-0.81s-1.57-0.41-2.56-0.47c-0.82-0.05-1.58,0.01-2.26,0.18
			c-0.69,0.17-1.28,0.42-1.77,0.75c-0.49,0.34-0.88,0.75-1.16,1.23c-0.28,0.48-0.44,1.01-0.47,1.58c-0.04,0.74,0.14,1.37,0.55,1.89
			c0.41,0.51,0.97,0.97,1.66,1.36c0.69,0.39,1.49,0.76,2.38,1.09c0.89,0.34,1.81,0.69,2.74,1.06c0.93,0.37,1.84,0.78,2.73,1.23
			c0.89,0.45,1.67,1,2.35,1.64c0.68,0.64,1.22,1.39,1.61,2.26c0.39,0.87,0.55,1.91,0.48,3.12c-0.08,1.39-0.4,2.66-0.97,3.82
			c-0.57,1.16-1.36,2.14-2.38,2.94c-1.02,0.81-2.26,1.41-3.71,1.82c-1.46,0.41-3.11,0.56-4.95,0.45c-2.05-0.12-3.93-0.57-5.64-1.35
			s-3.11-1.74-4.22-2.86l1.48-2.12c0.17-0.26,0.38-0.46,0.62-0.6c0.24-0.13,0.56-0.19,0.95-0.17c0.37,0.02,0.75,0.18,1.12,0.48
			s0.83,0.62,1.36,0.98c0.53,0.35,1.18,0.69,1.95,1c0.77,0.31,1.74,0.5,2.91,0.56c0.98,0.06,1.84-0.02,2.58-0.22
			c0.74-0.2,1.36-0.5,1.86-0.9c0.5-0.39,0.89-0.86,1.16-1.39c0.27-0.53,0.42-1.1,0.45-1.71c0.04-0.78-0.14-1.45-0.55-1.99
			s-0.96-1.02-1.66-1.44c-0.69-0.41-1.49-0.78-2.4-1.11c-0.9-0.33-1.83-0.67-2.77-1.04c-0.94-0.37-1.86-0.78-2.76-1.25
			s-1.68-1.03-2.36-1.7c-0.68-0.67-1.21-1.46-1.6-2.39c-0.39-0.93-0.55-2.03-0.47-3.33c0.07-1.15,0.37-2.25,0.91-3.28
			c0.54-1.03,1.29-1.92,2.24-2.67c0.96-0.75,2.12-1.33,3.49-1.73c1.37-0.4,2.91-0.56,4.64-0.46c1.98,0.11,3.74,0.53,5.3,1.25
			c1.56,0.72,2.88,1.66,3.95,2.82L405.04,23.18z"/>
		<path class="st0" d="M471.61,56.19c-0.89,0.62-1.85,1.11-2.89,1.46c-1.04,0.35-2.11,0.58-3.21,0.68c-1.1,0.1-2.21,0.1-3.32,0
			c-1.12-0.1-2.2-0.29-3.24-0.55c-1.99-0.51-3.76-1.32-5.28-2.42c-1.53-1.11-2.75-2.47-3.66-4.09s-1.47-3.48-1.67-5.59
			c-0.2-2.1,0.02-4.41,0.66-6.92c0.51-2.01,1.31-3.81,2.38-5.39c1.07-1.58,2.35-2.86,3.85-3.86c1.5-0.99,3.19-1.65,5.07-1.96
			c1.88-0.31,3.87-0.2,5.98,0.34c1.77,0.45,3.32,1.16,4.67,2.12c1.34,0.96,2.42,2.13,3.22,3.51s1.31,2.95,1.51,4.73
			c0.21,1.77,0.04,3.69-0.48,5.76c-0.22,0.85-0.46,1.41-0.72,1.65c-0.26,0.25-0.65,0.3-1.17,0.17l-18.98-4.84
			c-0.38,1.74-0.52,3.31-0.41,4.71c0.11,1.39,0.44,2.62,0.99,3.67c0.55,1.05,1.31,1.92,2.26,2.61c0.96,0.69,2.09,1.2,3.4,1.54
			c1.24,0.31,2.34,0.44,3.32,0.39c0.97-0.06,1.83-0.17,2.57-0.33c0.74-0.17,1.37-0.33,1.89-0.5c0.52-0.17,0.95-0.21,1.29-0.13
			c0.46,0.12,0.76,0.38,0.92,0.78L471.61,56.19z M470.48,41.46c0.28-1.1,0.38-2.16,0.31-3.17c-0.08-1.01-0.33-1.94-0.76-2.77
			c-0.43-0.84-1.04-1.56-1.82-2.16c-0.78-0.6-1.74-1.05-2.88-1.34c-2.34-0.6-4.35-0.39-6.03,0.62c-1.68,1.01-3.01,2.66-3.98,4.96
			L470.48,41.46z"/>
	</g>
	<g>
		<path class="st0" d="M16.34,320.71l29.71,3.16l-0.36,3.42c-0.08,0.8-0.52,1.26-1.3,1.37l-2.88,0.11c1.19,1.23,2.13,2.56,2.81,3.98
			c0.69,1.42,0.93,3.03,0.74,4.83c-0.21,1.97-0.92,3.51-2.13,4.62c-1.21,1.11-2.77,1.85-4.69,2.22c1.01,0.54,1.85,1.19,2.54,1.96
			c0.69,0.76,1.23,1.59,1.63,2.48c0.4,0.89,0.66,1.82,0.8,2.79c0.13,0.97,0.15,1.94,0.04,2.92c-0.17,1.58-0.57,2.96-1.2,4.15
			s-1.47,2.16-2.51,2.91c-1.05,0.76-2.3,1.28-3.75,1.58c-1.45,0.3-3.07,0.35-4.87,0.16l-18.92-2.01l0.61-5.73l18.92,2.01
			c2.22,0.24,3.95-0.07,5.18-0.91c1.23-0.84,1.95-2.19,2.15-4.04c0.09-0.82,0.03-1.61-0.17-2.38c-0.2-0.77-0.56-1.46-1.06-2.08
			c-0.51-0.62-1.16-1.13-1.97-1.54c-0.8-0.41-1.76-0.68-2.87-0.79l-18.92-2.01l0.61-5.73l18.92,2.01c2.3,0.24,4.04-0.03,5.23-0.83
			c1.19-0.8,1.88-2.09,2.07-3.86c0.13-1.23-0.07-2.4-0.6-3.52c-0.53-1.12-1.31-2.18-2.32-3.17l-22.05-2.35L16.34,320.71z"/>
		<path class="st0" d="M38.87,408.75c1.77,1.47,3.17,3.12,4.17,4.97c1.01,1.84,1.65,3.92,1.93,6.24c0.2,1.69,0.1,3.23-0.3,4.6
			c-0.4,1.37-1.04,2.56-1.93,3.58s-1.99,1.83-3.32,2.45c-1.33,0.62-2.83,1.03-4.5,1.23L16,434.07l-0.3-2.54
			c-0.07-0.56-0.03-1,0.12-1.32c0.15-0.31,0.47-0.59,0.95-0.82l2.53-0.92c-0.79-0.68-1.5-1.35-2.12-2.03
			c-0.62-0.68-1.17-1.4-1.65-2.16c-0.48-0.76-0.87-1.59-1.17-2.48c-0.3-0.89-0.52-1.89-0.65-3c-0.14-1.17-0.11-2.28,0.09-3.34
			s0.58-2.01,1.16-2.85c0.57-0.84,1.33-1.53,2.27-2.09c0.94-0.56,2.07-0.91,3.4-1.07c1.17-0.14,2.33,0.04,3.49,0.55
			c1.16,0.5,2.25,1.42,3.27,2.75c1.03,1.33,1.95,3.12,2.77,5.36c0.82,2.24,1.47,5.04,1.95,8.4l2.16-0.26
			c2.24-0.27,3.86-0.94,4.85-2.03c1-1.09,1.38-2.55,1.16-4.4c-0.15-1.25-0.43-2.27-0.84-3.08c-0.41-0.81-0.84-1.5-1.3-2.07
			c-0.45-0.57-0.86-1.06-1.23-1.48c-0.37-0.42-0.58-0.87-0.64-1.36c-0.05-0.39,0.02-0.74,0.2-1.05c0.18-0.31,0.41-0.57,0.68-0.78
			L38.87,408.75z M28.5,426.92c-0.35-2.31-0.77-4.25-1.24-5.83c-0.47-1.58-1.01-2.85-1.59-3.81c-0.59-0.96-1.23-1.62-1.91-1.99
			c-0.69-0.37-1.42-0.51-2.2-0.42c-0.74,0.09-1.36,0.29-1.87,0.59c-0.51,0.31-0.91,0.69-1.2,1.15c-0.29,0.46-0.48,0.98-0.57,1.56
			c-0.09,0.58-0.09,1.21-0.01,1.87c0.1,0.88,0.29,1.67,0.55,2.38c0.26,0.71,0.59,1.37,0.99,1.97c0.4,0.6,0.86,1.17,1.4,1.7
			s1.14,1.04,1.81,1.53L28.5,426.92z"/>
		<path class="st0" d="M29.2,491.69c-0.72-2.3-0.64-4.28,0.26-5.92s2.54-2.85,4.94-3.6l17.06-5.37l-1.04-3.31
			c-0.1-0.32-0.09-0.62,0.04-0.89c0.13-0.28,0.39-0.48,0.78-0.6l2.22-0.7l2.1,4.43l8.89-1.44c0.34-0.03,0.63,0.04,0.88,0.2
			c0.25,0.16,0.42,0.41,0.53,0.74l0.87,2.78l-9.57,3.01l2.54,8.08l-3.98,1.25l-2.54-8.08l-16.69,5.25
			c-1.12,0.35-1.87,0.89-2.25,1.62c-0.38,0.72-0.43,1.52-0.16,2.38c0.16,0.5,0.36,0.92,0.61,1.24c0.25,0.32,0.49,0.59,0.73,0.8
			c0.24,0.21,0.46,0.39,0.65,0.54c0.19,0.15,0.31,0.29,0.35,0.44c0.06,0.19,0.06,0.34,0.01,0.47c-0.05,0.13-0.15,0.28-0.31,0.45
			l-2.12,2.46c-1.11-0.64-2.08-1.5-2.91-2.6C30.24,494.23,29.61,493.02,29.2,491.69z"/>
		<path class="st0" d="M65.4,561.42c-1.06-0.23-2.07-0.61-3.04-1.14s-1.86-1.16-2.68-1.9c-0.82-0.74-1.57-1.55-2.25-2.44
			c-0.68-0.89-1.28-1.81-1.79-2.76c-0.98-1.81-1.58-3.66-1.8-5.53c-0.22-1.88-0.04-3.7,0.53-5.46c0.57-1.77,1.56-3.44,2.98-5.01
			c1.41-1.57,3.26-2.98,5.53-4.2c1.83-0.99,3.69-1.62,5.57-1.9c1.89-0.28,3.7-0.21,5.45,0.22c1.75,0.43,3.37,1.23,4.87,2.4
			s2.77,2.72,3.8,4.63c0.87,1.6,1.4,3.23,1.6,4.86c0.2,1.64,0.07,3.22-0.4,4.74s-1.29,2.96-2.45,4.31
			c-1.16,1.35-2.69,2.54-4.57,3.55c-0.78,0.42-1.35,0.61-1.71,0.59c-0.36-0.03-0.67-0.28-0.92-0.74l-9.3-17.24
			c-1.54,0.9-2.79,1.86-3.74,2.89c-0.95,1.03-1.63,2.1-2.03,3.21c-0.4,1.12-0.53,2.26-0.39,3.43c0.14,1.17,0.53,2.35,1.18,3.54
			c0.6,1.12,1.26,2.02,1.96,2.7c0.7,0.68,1.36,1.24,1.99,1.67s1.17,0.78,1.65,1.05s0.8,0.55,0.97,0.87
			c0.22,0.41,0.24,0.82,0.05,1.21L65.4,561.42z M75.47,550.61c1-0.54,1.85-1.18,2.54-1.92c0.69-0.74,1.2-1.55,1.52-2.44
			c0.32-0.89,0.44-1.82,0.36-2.8c-0.08-0.98-0.4-1.99-0.96-3.02c-1.14-2.12-2.66-3.46-4.54-4.02s-4-0.41-6.35,0.43L75.47,550.61z"/>
		<path class="st0" d="M111.58,592.9c2.13-0.49,4.05-0.57,5.77-0.23c1.72,0.34,3.18,1.25,4.38,2.72c0.41,0.5,0.74,1.02,0.99,1.56
			c0.25,0.54,0.4,1.07,0.44,1.59l-3.59,2.43c-0.5,0.23-0.91,0.14-1.23-0.25c-0.17-0.21-0.39-0.57-0.65-1.06
			c-0.26-0.49-0.59-0.98-0.99-1.47c-0.58-0.71-1.2-1.26-1.85-1.64c-0.65-0.38-1.35-0.62-2.11-0.73c-0.76-0.11-1.56-0.09-2.42,0.06
			c-0.86,0.14-1.78,0.37-2.76,0.69l-14.5,11.82l-3.62-4.45l23.16-18.88l2.08,2.55c0.4,0.49,0.58,0.89,0.55,1.21
			c-0.03,0.32-0.24,0.69-0.62,1.13L111.58,592.9z"/>
		<path class="st0" d="M153.78,634.49c0.94-0.11,1.86-0.16,2.76-0.14c0.91,0.02,1.79,0.12,2.66,0.32c0.87,0.2,1.72,0.51,2.57,0.92
			c0.84,0.41,1.66,0.95,2.46,1.62c1.26,1.06,2.2,2.19,2.8,3.41c0.6,1.22,0.91,2.48,0.92,3.78c0.01,1.3-0.26,2.62-0.82,3.97
			c-0.56,1.35-1.38,2.67-2.46,3.96l-12.2,14.6l-4.42-3.69l12.2-14.6c1.37-1.64,2.06-3.23,2.07-4.77c0.01-1.54-0.76-2.96-2.31-4.25
			c-1.13-0.94-2.41-1.56-3.84-1.85c-1.43-0.29-2.95-0.33-4.56-0.11l-14.04,16.82l-4.4-3.68l19.15-22.93l2.64,2.21
			c0.62,0.52,0.76,1.13,0.42,1.84L153.78,634.49z"/>
		<path class="st0" d="M214.05,671.63l-14.71,26.01l-4.99-2.82l14.71-26L214.05,671.63z M219.54,664.13
			c-0.26,0.46-0.6,0.85-1.03,1.16c-0.42,0.31-0.88,0.54-1.38,0.67c-0.49,0.14-1.01,0.17-1.53,0.11c-0.53-0.06-1.02-0.22-1.48-0.48
			c-0.46-0.26-0.85-0.6-1.15-1.01c-0.31-0.41-0.53-0.86-0.67-1.36c-0.14-0.49-0.18-1-0.12-1.52c0.06-0.52,0.22-1.01,0.48-1.47
			c0.27-0.48,0.61-0.88,1.03-1.19c0.42-0.32,0.87-0.54,1.36-0.68c0.49-0.14,1-0.18,1.51-0.13c0.51,0.05,1,0.21,1.46,0.47
			c0.46,0.26,0.85,0.6,1.18,1.02c0.33,0.42,0.56,0.88,0.69,1.37c0.14,0.5,0.18,1,0.13,1.53S219.81,663.65,219.54,664.13z"/>
		<path class="st0" d="M253.43,722.6c-2.27-0.83-3.78-2.1-4.54-3.81c-0.76-1.72-0.71-3.75,0.15-6.11l6.12-16.8l-3.26-1.19
			c-0.31-0.11-0.54-0.31-0.68-0.58c-0.14-0.27-0.14-0.6,0-0.99l0.8-2.18l4.79,1.03l4.27-7.93c0.19-0.29,0.42-0.48,0.7-0.58
			c0.27-0.1,0.58-0.09,0.91,0.04l2.74,1l-3.43,9.42l7.96,2.9l-1.43,3.92l-7.96-2.9l-5.99,16.44c-0.4,1.11-0.43,2.03-0.09,2.77
			c0.34,0.74,0.94,1.27,1.79,1.58c0.5,0.18,0.95,0.27,1.36,0.27c0.41,0,0.77-0.03,1.08-0.09c0.31-0.06,0.59-0.12,0.82-0.19
			c0.23-0.06,0.42-0.07,0.57-0.01c0.18,0.07,0.31,0.16,0.38,0.28c0.07,0.12,0.13,0.29,0.17,0.52l0.66,3.18
			c-1.18,0.49-2.46,0.73-3.83,0.73C256.08,723.32,254.74,723.08,253.43,722.6z"/>
		<path class="st0" d="M336.59,711.31l-22.52,35.42c-0.24,0.4-0.53,0.69-0.86,0.88c-0.33,0.19-0.77,0.23-1.33,0.14l-4.21-0.68
			l7.3-10.89l-7.65-29.59l4.94,0.8c0.48,0.08,0.84,0.25,1.08,0.53c0.23,0.28,0.39,0.57,0.45,0.88l4.63,18.92
			c0.08,0.47,0.16,0.95,0.23,1.42c0.07,0.48,0.12,0.95,0.15,1.41c0.21-0.44,0.43-0.88,0.66-1.31c0.23-0.43,0.47-0.85,0.71-1.27
			l10.08-16.51c0.19-0.31,0.45-0.54,0.77-0.71c0.32-0.17,0.67-0.22,1.04-0.16L336.59,711.31z"/>
		<path class="st0" d="M442.57,737.39c-2.37,0.42-4.32,0.08-5.84-1.02c-1.52-1.1-2.5-2.89-2.94-5.36l-3.15-17.6l-3.42,0.61
			c-0.33,0.06-0.62,0.01-0.88-0.16c-0.26-0.16-0.42-0.45-0.5-0.85l-0.41-2.29l4.66-1.52l-0.29-9c0.02-0.34,0.12-0.62,0.31-0.85
			c0.19-0.22,0.46-0.37,0.8-0.43l2.87-0.51l1.76,9.87l8.34-1.49l0.73,4.11l-8.34,1.49l3.08,17.22c0.21,1.16,0.65,1.97,1.32,2.44
			c0.67,0.47,1.45,0.62,2.34,0.46c0.52-0.09,0.96-0.24,1.31-0.44c0.35-0.2,0.65-0.41,0.89-0.62c0.24-0.21,0.45-0.4,0.62-0.57
			c0.17-0.17,0.33-0.27,0.48-0.3c0.19-0.03,0.35-0.02,0.47,0.05c0.12,0.07,0.26,0.19,0.41,0.36l2.17,2.42
			c-0.77,1.01-1.76,1.87-2.95,2.56C445.22,736.68,443.94,737.14,442.57,737.39z"/>
		<path class="st0" d="M491.18,696.7c0.71-1.64,1.63-3.1,2.76-4.38c1.13-1.28,2.62-2.28,4.47-3c1.54-0.6,2.98-0.86,4.34-0.8
			c1.36,0.06,2.61,0.4,3.75,1.02c1.14,0.62,2.17,1.5,3.07,2.64c0.91,1.14,1.66,2.5,2.27,4.07l6.88,17.74l-5.37,2.08l-6.88-17.74
			c-0.77-1.99-1.83-3.36-3.17-4.11s-2.96-0.76-4.84-0.03c-1.37,0.53-2.53,1.36-3.47,2.47s-1.71,2.43-2.3,3.94l7.93,20.42l-5.35,2.07
			l-15.71-40.46l5.35-2.07L491.18,696.7z"/>
		<path class="st0" d="M582.03,673.76c-0.14,1.07-0.44,2.11-0.88,3.12c-0.45,1-1,1.95-1.67,2.83c-0.67,0.88-1.42,1.69-2.25,2.45
			c-0.83,0.75-1.7,1.42-2.6,2.01c-1.73,1.12-3.51,1.87-5.36,2.25c-1.85,0.38-3.68,0.35-5.49-0.07c-1.81-0.42-3.56-1.28-5.24-2.55
			c-1.69-1.28-3.24-3-4.65-5.17c-1.13-1.74-1.92-3.54-2.36-5.4c-0.44-1.86-0.51-3.67-0.23-5.45c0.28-1.77,0.95-3.46,1.99-5.05
			s2.48-2.98,4.3-4.17c1.53-1,3.1-1.66,4.71-2c1.62-0.34,3.2-0.34,4.76,0.01s3.06,1.04,4.5,2.09c1.44,1.05,2.75,2.47,3.91,4.26
			c0.48,0.74,0.72,1.29,0.72,1.65c0,0.36-0.22,0.69-0.66,0.98l-16.41,10.69c1.02,1.46,2.08,2.63,3.18,3.49
			c1.1,0.86,2.22,1.45,3.37,1.75s2.3,0.34,3.45,0.1c1.16-0.24,2.3-0.73,3.43-1.46c1.07-0.7,1.91-1.42,2.53-2.17
			c0.62-0.75,1.12-1.46,1.5-2.12c0.38-0.66,0.68-1.23,0.91-1.73s0.49-0.84,0.78-1.04c0.39-0.26,0.79-0.31,1.2-0.15L582.03,673.76z
			 M570.43,664.62c-0.62-0.95-1.33-1.74-2.12-2.37c-0.8-0.63-1.65-1.07-2.56-1.32c-0.91-0.25-1.85-0.29-2.82-0.13
			c-0.97,0.16-1.95,0.57-2.93,1.21c-2.02,1.32-3.23,2.93-3.63,4.86s-0.08,4.02,0.96,6.29L570.43,664.62z"/>
		<path class="st0" d="M609.59,625.16c-0.67-2.08-0.9-3.99-0.7-5.73s0.99-3.27,2.36-4.59c0.47-0.45,0.96-0.82,1.48-1.12
			s1.04-0.49,1.55-0.57l2.72,3.38c0.27,0.48,0.22,0.89-0.15,1.25c-0.2,0.19-0.53,0.44-1,0.74c-0.47,0.3-0.93,0.67-1.38,1.11
			c-0.67,0.64-1.16,1.3-1.48,1.98c-0.33,0.68-0.51,1.4-0.55,2.16c-0.04,0.76,0.04,1.56,0.26,2.41c0.21,0.84,0.52,1.74,0.91,2.69
			l12.97,13.48l-4.13,3.98l-20.71-21.53l2.37-2.28c0.45-0.43,0.84-0.65,1.16-0.64c0.32,0.01,0.71,0.18,1.18,0.52L609.59,625.16z"/>
		<path class="st0" d="M643.74,585.06c-0.32-2.28-0.24-4.44,0.26-6.48s1.42-4.01,2.78-5.91c0.99-1.39,2.1-2.45,3.31-3.2
			c1.22-0.74,2.5-1.19,3.83-1.34c1.34-0.15,2.71-0.01,4.11,0.42c1.4,0.43,2.79,1.14,4.16,2.12l15.51,11.08l-1.49,2.08
			c-0.33,0.46-0.66,0.76-0.98,0.89c-0.32,0.13-0.74,0.12-1.26-0.03l-2.49-1.02c0.13,1.03,0.2,2.01,0.2,2.93s-0.07,1.82-0.23,2.71
			c-0.16,0.88-0.43,1.76-0.81,2.62c-0.38,0.86-0.89,1.75-1.54,2.66c-0.68,0.96-1.46,1.76-2.32,2.41s-1.79,1.09-2.77,1.33
			c-0.99,0.24-2.02,0.24-3.08,0.02c-1.07-0.22-2.15-0.72-3.23-1.5c-0.96-0.68-1.69-1.6-2.21-2.75c-0.52-1.15-0.71-2.56-0.57-4.24
			c0.14-1.67,0.66-3.62,1.56-5.83c0.9-2.21,2.31-4.72,4.22-7.52l-1.77-1.26c-1.83-1.31-3.49-1.9-4.95-1.77
			c-1.47,0.13-2.74,0.96-3.83,2.47c-0.73,1.02-1.21,1.97-1.46,2.85c-0.24,0.88-0.38,1.68-0.43,2.4c-0.05,0.72-0.08,1.37-0.09,1.92
			c-0.01,0.56-0.16,1.04-0.45,1.43c-0.23,0.32-0.51,0.53-0.85,0.64c-0.34,0.11-0.68,0.15-1.02,0.12L643.74,585.06z M663.64,578.6
			c-1.29,1.94-2.29,3.66-3.01,5.15c-0.71,1.49-1.18,2.79-1.39,3.89c-0.21,1.1-0.19,2.02,0.07,2.76c0.26,0.74,0.7,1.33,1.34,1.79
			c0.61,0.43,1.2,0.71,1.78,0.82c0.58,0.11,1.13,0.1,1.66-0.04c0.52-0.14,1.02-0.4,1.47-0.77c0.46-0.37,0.88-0.83,1.27-1.37
			c0.51-0.72,0.91-1.43,1.19-2.13c0.28-0.7,0.48-1.41,0.59-2.12c0.11-0.71,0.15-1.45,0.11-2.2s-0.14-1.54-0.31-2.35L663.64,578.6z"
			/>
		<path class="st0" d="M681.86,522.6c-0.43-0.87-0.78-1.76-1.06-2.67c-0.28-0.9-0.45-1.82-0.52-2.75c-0.07-0.93-0.03-1.87,0.12-2.82
			c0.15-0.95,0.44-1.91,0.87-2.88c0.69-1.56,1.62-2.84,2.79-3.83c1.17-0.99,2.54-1.68,4.12-2.05c1.58-0.37,3.35-0.42,5.31-0.15
			c1.96,0.28,4.07,0.91,6.33,1.91c2.03,0.9,3.78,2,5.27,3.31s2.65,2.75,3.47,4.33c0.83,1.58,1.28,3.25,1.36,5.04
			s-0.28,3.59-1.09,5.42c-0.72,1.63-1.61,2.91-2.66,3.84c-1.05,0.93-2.27,1.64-3.64,2.12l11.86,5.24l-2.32,5.25l-36.5-16.12
			l1.39-3.15c0.33-0.73,0.88-1.04,1.66-0.91L681.86,522.6z M698.5,529.62c1.51-0.36,2.71-0.94,3.6-1.74c0.89-0.8,1.6-1.81,2.15-3.05
			c1.06-2.4,1.02-4.65-0.13-6.73c-1.15-2.08-3.38-3.86-6.7-5.32c-1.74-0.77-3.29-1.28-4.65-1.52c-1.36-0.25-2.55-0.26-3.58-0.04
			c-1.03,0.22-1.91,0.66-2.64,1.32c-0.73,0.66-1.33,1.51-1.79,2.55c-0.67,1.52-0.92,3-0.73,4.42c0.19,1.42,0.7,2.89,1.53,4.39
			L698.5,529.62z"/>
		<path class="st0" d="M691.84,450.98c0.51,0.12,0.98,0.34,1.4,0.66c0.42,0.32,0.76,0.7,1.03,1.14s0.45,0.92,0.53,1.44
			c0.09,0.52,0.07,1.04-0.05,1.56c-0.12,0.52-0.34,0.98-0.65,1.39c-0.31,0.41-0.68,0.75-1.12,1.02s-0.91,0.45-1.43,0.54
			c-0.51,0.09-1.03,0.07-1.54-0.05c-0.53-0.13-1.01-0.34-1.43-0.66c-0.42-0.31-0.76-0.68-1.03-1.12c-0.27-0.44-0.45-0.91-0.54-1.41
			c-0.09-0.5-0.08-1.01,0.04-1.53c0.12-0.51,0.34-0.99,0.65-1.42c0.31-0.43,0.69-0.78,1.12-1.05c0.44-0.27,0.91-0.45,1.43-0.55
			C690.78,450.84,691.31,450.86,691.84,450.98z M700.57,454.17l29.07,6.89l-1.32,5.58l-29.07-6.89L700.57,454.17z"/>
		<path class="st0" d="M734.67,386.4c0.78,0.75,1.45,1.6,2,2.55c0.55,0.95,0.98,1.96,1.3,3.01c0.32,1.06,0.53,2.14,0.65,3.26
			c0.12,1.12,0.15,2.21,0.09,3.29c-0.11,2.06-0.56,3.94-1.35,5.66c-0.79,1.71-1.89,3.18-3.3,4.39s-3.13,2.12-5.15,2.73
			c-2.03,0.61-4.33,0.84-6.91,0.7c-2.08-0.11-3.99-0.54-5.75-1.28c-1.76-0.74-3.27-1.75-4.54-3.03c-1.27-1.28-2.23-2.8-2.9-4.59
			s-0.95-3.76-0.83-5.93c0.1-1.82,0.49-3.48,1.17-4.99c0.68-1.5,1.62-2.78,2.81-3.84c1.2-1.05,2.64-1.86,4.34-2.4
			c1.7-0.55,3.61-0.76,5.75-0.65c0.88,0.05,1.47,0.18,1.76,0.39s0.42,0.58,0.4,1.11l-1.05,19.56c1.78,0.04,3.35-0.13,4.7-0.51
			c1.35-0.38,2.48-0.94,3.4-1.69c0.92-0.75,1.63-1.66,2.12-2.73c0.49-1.07,0.77-2.29,0.84-3.64c0.07-1.27-0.02-2.38-0.26-3.33
			c-0.24-0.95-0.52-1.77-0.83-2.46c-0.31-0.69-0.59-1.28-0.86-1.75c-0.27-0.48-0.39-0.89-0.38-1.24c0.03-0.47,0.22-0.82,0.59-1.06
			L734.67,386.4z M720.44,390.38c-1.13-0.06-2.19,0.04-3.17,0.32s-1.83,0.7-2.57,1.29c-0.74,0.59-1.33,1.32-1.77,2.2
			c-0.44,0.88-0.69,1.91-0.75,3.08c-0.13,2.41,0.46,4.34,1.78,5.79c1.32,1.46,3.2,2.43,5.64,2.94L720.44,390.38z"/>
		<path class="st0" d="M709.54,323.78c0.27,0.12,0.48,0.26,0.61,0.42c0.13,0.16,0.22,0.38,0.25,0.65c0.04,0.31-0.01,0.67-0.18,1.08
			c-0.16,0.41-0.33,0.9-0.51,1.47c-0.18,0.57-0.32,1.23-0.44,1.98c-0.11,0.75-0.1,1.62,0.04,2.61c0.11,0.82,0.32,1.54,0.62,2.19
			c0.3,0.64,0.66,1.17,1.08,1.59c0.42,0.42,0.9,0.72,1.43,0.9s1.08,0.24,1.64,0.16c0.74-0.1,1.32-0.41,1.74-0.91
			c0.42-0.5,0.76-1.14,1.01-1.89c0.25-0.76,0.45-1.61,0.61-2.55c0.16-0.94,0.32-1.91,0.5-2.89c0.18-0.98,0.41-1.96,0.68-2.92
			c0.27-0.96,0.66-1.83,1.15-2.62c0.49-0.79,1.13-1.46,1.9-2.02c0.77-0.55,1.76-0.91,2.97-1.08c1.38-0.19,2.69-0.12,3.93,0.21
			c1.24,0.33,2.36,0.92,3.35,1.76c0.99,0.84,1.83,1.94,2.51,3.29c0.68,1.35,1.15,2.94,1.41,4.76c0.28,2.04,0.21,3.97-0.23,5.79
			c-0.44,1.82-1.1,3.39-1.99,4.7l-2.37-1.04c-0.29-0.12-0.53-0.28-0.71-0.5c-0.18-0.21-0.29-0.51-0.35-0.9
			c-0.05-0.37,0.03-0.77,0.25-1.19s0.45-0.93,0.69-1.52c0.25-0.59,0.44-1.29,0.6-2.1c0.15-0.81,0.15-1.8-0.01-2.97
			c-0.14-0.97-0.37-1.8-0.72-2.48c-0.34-0.68-0.76-1.24-1.24-1.65c-0.48-0.42-1.01-0.7-1.59-0.86c-0.58-0.16-1.17-0.19-1.77-0.11
			c-0.78,0.11-1.39,0.42-1.85,0.93c-0.45,0.51-0.82,1.14-1.08,1.9c-0.27,0.76-0.48,1.62-0.62,2.57s-0.31,1.92-0.48,2.92
			c-0.18,1-0.41,1.98-0.69,2.95c-0.28,0.97-0.68,1.85-1.21,2.65c-0.52,0.8-1.2,1.47-2.03,2.04c-0.83,0.56-1.89,0.93-3.17,1.11
			c-1.15,0.16-2.28,0.08-3.39-0.25c-1.12-0.33-2.13-0.89-3.06-1.68c-0.92-0.79-1.71-1.82-2.38-3.08c-0.66-1.26-1.11-2.75-1.35-4.46
			c-0.27-1.96-0.21-3.78,0.19-5.45c0.4-1.67,1.07-3.14,2-4.42L709.54,323.78z"/>
	</g>
</g>
</svg>
