<?xml version="1.0" encoding="utf-8"?>
<!-- Generator: Adobe Illustrator 27.0.0, SVG Export Plug-In . SVG Version: 6.00 Build 0)  -->
<svg version="1.1" id="Layer_1" xmlns="http://www.w3.org/2000/svg" xmlns:xlink="http://www.w3.org/1999/xlink" x="0px" y="0px"
	 viewBox="0 0 464.43 464.43" style="enable-background:new 0 0 464.43 464.43;" xml:space="preserve">
<style type="text/css">
	.st0{fill:#395F50;}
</style>
<g>
	<g>
		<g>
			<path class="st0" d="M226.72,250.6c-1.71,0-3.3-1.18-4.04-3.02c-1.2-2.94-1.98-6.07-2.33-9.32c-3.55-0.18-7.11-0.9-10.61-2.14
				l-2.59,10.1c-0.47,1.84-2.19,3.13-4.19,3.13c-0.34,0-0.68-0.04-1.01-0.11c-1.04-0.24-1.93-0.89-2.51-1.85
				c-0.63-1.02-0.82-2.26-0.53-3.39l2.98-11.62c-1.3-0.79-2.58-1.65-3.79-2.58c-1.96-1.48-2.51-3.67-1.43-5.71
				c0.68-1.29,2.26-2.19,3.83-2.19c0.81,0,1.56,0.24,2.16,0.69c1.61,1.22,3.27,2.31,4.94,3.23c0.82,0.46,1.66,0.88,2.49,1.26
				c0.5,0.23,0.72,0.33,0.98,0.43c0.38,0.15,0.77,0.3,1.16,0.44c1.65,0.6,3.34,1.06,5.02,1.38c0.44,0.08,0.88,0.16,1.32,0.22
				l0.59,0.06c0.82,0.08,1.63,0.13,2.42,0.14l0.36,0c0.8,0,1.59-0.03,2.37-0.1l0.68-0.07c0.24-0.04,0.49-0.07,0.73-0.12
				c1.42-0.26,2.83-0.64,4.18-1.14c0.25-0.09,0.5-0.19,0.74-0.29c0.33-0.15,0.58-0.26,0.84-0.39c0.64-0.31,1.26-0.65,1.85-1
				c0.64-0.38,1.27-0.79,1.85-1.22l0.33-0.25l0.26-0.22c0.2-0.17,0.41-0.34,0.61-0.53c0.54-0.49,1.06-1,1.55-1.54
				c0.23-0.25,0.45-0.51,0.67-0.78l0.17-0.22l0.14-0.19c0.81-1.12,1.51-2.36,2.09-3.67c0.59-1.36,2.01-2.2,3.7-2.2
				c0.76,0,1.53,0.18,2.16,0.51c2.21,1.17,2.5,3.77,1.64,5.73c-0.85,1.95-1.99,3.81-3.39,5.53c2.07,2.04,3.96,4.36,5.62,6.89
				c0.57,0.87,0.76,1.93,0.54,2.99c-0.25,1.18-0.97,2.22-1.99,2.88c-0.63,0.4-1.36,0.62-2.11,0.62l0,0c-1.47,0-2.9-0.79-3.74-2.07
				c-1.05-1.61-1.78-2.55-3-3.89c-0.53-0.58-1.1-1.16-1.71-1.74c-3.04,1.98-6.35,3.38-9.87,4.19c0.28,2.53,0.92,4.94,1.97,7.52
				c0.37,0.92,0.33,1.95-0.11,2.9c-0.53,1.14-1.59,2.09-2.77,2.47C227.53,250.53,227.12,250.6,226.72,250.6z"/>
		</g>
		<g>
			<path class="st0" d="M249.67,235.22c-1.8-2.74-3.89-5.27-6.29-7.49c1.63-1.82,2.99-3.9,3.97-6.12c0.63-1.44,0.47-3.3-1.08-4.12
				c-1.3-0.69-3.45-0.46-4.12,1.08c-0.6,1.38-1.34,2.69-2.22,3.91c-0.02,0.03-0.11,0.15-0.18,0.24c-0.07,0.08-0.16,0.2-0.18,0.23
				c-0.23,0.28-0.47,0.55-0.71,0.82c-0.52,0.57-1.07,1.12-1.64,1.63c-0.27,0.24-0.55,0.48-0.83,0.71c-0.03,0.03-0.12,0.1-0.18,0.15
				c-0.1,0.07-0.2,0.15-0.3,0.22c-0.63,0.46-1.28,0.89-1.95,1.28c-0.63,0.38-1.28,0.72-1.94,1.04c-0.29,0.14-0.58,0.27-0.87,0.4
				c-0.02,0.01-0.04,0.02-0.05,0.02c-0.26,0.1-0.51,0.2-0.77,0.3c-1.43,0.52-2.9,0.92-4.39,1.19c-0.25,0.05-0.51,0.09-0.76,0.12
				c-0.05,0-0.61,0.07-0.76,0.08c-0.95,0.08-1.9,0.12-2.86,0.1c-0.85-0.01-1.69-0.06-2.53-0.14c-0.16-0.02-0.32-0.03-0.47-0.05
				c-0.06-0.01-0.1-0.01-0.13-0.01c0,0-0.01,0-0.01,0c-0.47-0.07-0.94-0.15-1.41-0.24c-1.77-0.34-3.51-0.83-5.21-1.44
				c-0.4-0.14-0.8-0.3-1.19-0.45c-0.28-0.11-0.52-0.21-1.04-0.46c-0.87-0.4-1.73-0.84-2.57-1.3c-1.78-0.98-3.47-2.1-5.09-3.33
				c-1.26-0.95-3.42-0.24-4.12,1.08c-0.84,1.59-0.27,3.1,1.08,4.12c1.43,1.08,2.93,2.08,4.49,2.98l-3.21,12.53
				c-0.39,1.52,0.5,3.34,2.1,3.7c1.57,0.36,3.28-0.47,3.7-2.1l2.94-11.46c3.69,1.45,7.6,2.35,11.58,2.56
				c0.35,0.02,0.7,0.03,1.06,0.03c0.27,3.45,1.04,6.86,2.35,10.07c0.59,1.45,2.03,2.64,3.7,2.1c1.4-0.45,2.74-2.14,2.1-3.7
				c-1.24-3.04-1.94-5.94-2.16-9c4.06-0.78,7.93-2.41,11.34-4.79c0.88,0.79,1.72,1.62,2.52,2.49c1.31,1.43,2.07,2.43,3.13,4.05
				c0.86,1.32,2.7,1.99,4.12,1.08C249.9,238.49,250.59,236.63,249.67,235.22z"/>
		</g>
		<g>
			<path class="st0" d="M327.36,237.49c-1.81,0-3.53-1.31-4.1-3.11l-2.7-8.57l-0.15,0c-2.51,0-5.01-0.35-7.46-1.04
				c-1.46,2.75-2.37,5.51-2.91,8.82c-0.35,2.12-2.4,3.23-4.25,3.23c-0.33,0-0.66-0.04-0.97-0.11c-2.45-0.56-3.4-3.06-3.06-5.13
				c0.59-3.57,1.74-7.05,3.42-10.34c-1.24-0.81-2.42-1.71-3.5-2.69c-0.77-0.7-1.23-1.67-1.28-2.75c-0.06-1.19,0.39-2.42,1.19-3.29
				c0.75-0.82,1.8-1.27,2.95-1.27c1.12,0,2.24,0.43,3.07,1.18c0.31,0.28,0.63,0.56,0.96,0.83l0.11,0.09l0.4,0.28
				c0.6,0.42,1.24,0.82,1.89,1.19c1.49,0.83,2.04,1.07,3.67,1.57c0.62,0.19,1.26,0.36,1.91,0.5c0.32,0.07,0.64,0.13,0.96,0.19
				l0.44,0.07c0.87,0.09,1.72,0.14,2.55,0.14c0.51,0,1.02-0.02,1.53-0.05c0.32-0.02,0.64-0.06,0.96-0.09l0.45-0.08
				c0.6-0.11,1.22-0.25,1.83-0.42c0.63-0.18,1.26-0.38,1.87-0.61l0.54-0.22l0.54-0.26c1.14-0.55,2.24-1.21,3.28-1.95l0.41-0.3
				c0.27-0.22,0.45-0.37,0.63-0.53c0.47-0.4,0.91-0.82,1.35-1.26c0.46-0.47,0.9-0.96,1.32-1.47l0.23-0.28
				c0.23-0.33,0.4-0.56,0.56-0.79c0.66-0.98,1.26-2.06,1.78-3.21c0.61-1.35,2.03-2.19,3.69-2.19c0.77,0,1.52,0.18,2.16,0.52
				c2.22,1.18,2.5,3.84,1.64,5.75c-0.68,1.51-1.53,2.97-2.51,4.36c2.39,1.93,4.61,3.95,6.6,6.03c1.6,1.67,1.61,4.24,0.02,5.97
				c-0.74,0.81-1.85,1.28-3.03,1.28l0,0c-1.18,0-2.29-0.46-3.06-1.26c-2.05-2.14-4.28-4.18-6.51-5.93
				c-2.37,1.78-4.96,3.15-7.72,4.09l2.41,7.66c0.68,2.17-0.62,4.53-2.91,5.27C328.16,237.43,327.76,237.49,327.36,237.49z"/>
		</g>
		<g>
			<path class="st0" d="M348.43,221.08c-2.31-2.41-4.8-4.63-7.43-6.67c1.23-1.58,2.29-3.29,3.11-5.1c0.65-1.43,0.46-3.3-1.08-4.12
				c-1.32-0.7-3.42-0.45-4.12,1.08c-0.54,1.18-1.16,2.32-1.88,3.4c-0.18,0.27-0.37,0.53-0.56,0.79c-0.02,0.03-0.04,0.06-0.05,0.07
				c-0.08,0.1-0.16,0.2-0.24,0.3c-0.44,0.54-0.91,1.05-1.39,1.55c-0.45,0.46-0.93,0.91-1.42,1.33c-0.21,0.18-0.43,0.36-0.64,0.54
				c-0.03,0.02-0.05,0.04-0.06,0.05c-0.14,0.11-0.29,0.21-0.43,0.32c-1.09,0.78-2.25,1.47-3.46,2.06c-0.12,0.06-0.25,0.12-0.38,0.18
				c-0.03,0.02-0.17,0.08-0.27,0.12c-0.11,0.04-0.46,0.19-0.55,0.22c-0.65,0.25-1.31,0.46-1.98,0.65c-0.64,0.18-1.28,0.32-1.93,0.44
				c-0.15,0.03-0.29,0.05-0.44,0.07c-0.04,0.01-0.07,0.01-0.09,0.02c-0.34,0.04-0.68,0.07-1.02,0.1c-1.43,0.1-2.87,0.06-4.29-0.09
				c-0.02,0-0.05,0-0.06-0.01c-0.15-0.02-0.31-0.05-0.46-0.07c-0.34-0.06-0.68-0.12-1.02-0.2c-0.68-0.15-1.35-0.32-2.01-0.52
				c-1.72-0.53-2.36-0.8-3.91-1.67c-0.69-0.39-1.36-0.81-2.01-1.26c-0.12-0.09-0.24-0.17-0.36-0.26c-0.05-0.04-0.09-0.07-0.13-0.09
				c-0.02-0.01-0.04-0.04-0.08-0.07c-0.35-0.28-0.68-0.57-1.01-0.87c-1.17-1.05-3.12-1.24-4.26,0c-1.06,1.15-1.25,3.13,0,4.26
				c1.33,1.2,2.78,2.26,4.32,3.17c-1.88,3.41-3.2,7.15-3.84,10.99c-0.26,1.55,0.4,3.32,2.1,3.7c1.45,0.33,3.43-0.44,3.7-2.1
				c0.62-3.79,1.73-6.95,3.54-10.11c2.71,0.87,5.56,1.32,8.44,1.28c0.23,0,0.46-0.01,0.69-0.02c0.99,3.16,1.99,6.31,2.98,9.47
				c0.47,1.5,2.12,2.62,3.7,2.1c1.51-0.49,2.61-2.09,2.1-3.7c-0.93-2.95-1.86-5.91-2.79-8.86c3.37-0.98,6.53-2.64,9.29-4.86
				c2.52,1.91,5.11,4.24,7.41,6.65c1.09,1.14,3.17,1.18,4.26,0C349.55,224.11,349.59,222.29,348.43,221.08z"/>
		</g>
		<g>
			<path class="st0" d="M268.62,332.94c-5.85,0-11.69-2.11-16.45-5.95c-0.78-0.63-1.25-1.55-1.33-2.61
				c-0.09-1.24,0.36-2.57,1.19-3.47c0.75-0.81,1.77-1.26,2.89-1.26c1.06,0,2.19,0.41,3.08,1.13l0.16,0.13
				c0.08,0.06,0.21,0.15,0.35,0.25c0.31,0.22,0.62,0.42,0.94,0.62c0.63,0.39,1.3,0.75,1.97,1.07l0.44,0.2l0.13,0.05
				c0.35,0.13,0.7,0.26,1.06,0.38c0.66,0.22,1.35,0.41,2.03,0.56c0.32,0.07,0.64,0.13,0.96,0.19l0.26,0.04
				c0.02,0,0.14,0.02,0.36,0.04c0.72,0.05,1.4,0.1,2.09,0.1c0.88-0.01,1.56-0.05,2.2-0.13l0,0.01c0.17-0.04,0.34-0.07,0.5-0.1
				l0.25-0.04c0.3-0.06,0.61-0.13,0.91-0.21c0.63-0.16,1.26-0.35,1.89-0.58c0,0,0.6-0.24,0.71-0.28c0.25-0.11,0.5-0.23,0.75-0.36
				c0.63-0.32,1.24-0.67,1.83-1.05c0.3-0.19,0.59-0.39,0.87-0.59l0.45-0.35c0.96-0.83,1.9-1.76,2.82-2.81
				c0.04-0.05,0.08-0.1,0.11-0.14l0.2-0.27c0.21-0.29,0.4-0.58,0.59-0.87c0.36-0.56,0.7-1.16,1.04-1.84
				c0.67-1.32,2.08-2.15,3.69-2.15c0.75,0,1.49,0.18,2.14,0.52c2.21,1.17,2.56,3.92,1.61,5.79c-1.45,2.87-3.5,5.5-5.91,7.59
				c-4.61,3.98-10.35,6.25-16.19,6.39C269.02,332.94,268.82,332.94,268.62,332.94z"/>
		</g>
		<g>
			<path class="st0" d="M289.12,314.28c-1.37-0.72-3.36-0.42-4.12,1.08c-0.34,0.67-0.7,1.32-1.11,1.95
				c-0.2,0.31-0.41,0.62-0.63,0.93c-0.07,0.1-0.14,0.19-0.21,0.28c-0.01,0.01-0.07,0.08-0.18,0.22c-0.93,1.07-1.9,2.04-2.98,2.97
				c-0.1,0.08-0.16,0.13-0.2,0.16c-0.1,0.08-0.2,0.15-0.31,0.23c-0.3,0.22-0.61,0.43-0.93,0.63c-0.63,0.4-1.28,0.78-1.95,1.12
				c-0.29,0.14-0.58,0.28-0.87,0.41c0.12-0.06-0.64,0.26-0.73,0.29c-0.66,0.24-1.33,0.45-2.01,0.62c-0.32,0.08-0.65,0.16-0.98,0.22
				c-0.09,0.02-0.86,0.14-0.83,0.15c-0.73,0.09-1.48,0.13-2.21,0.14c-0.8,0.01-1.59-0.05-2.38-0.11c-0.18-0.02-0.28-0.03-0.29-0.03
				c-0.13-0.02-0.26-0.04-0.38-0.06c-0.34-0.06-0.68-0.13-1.02-0.2c-0.73-0.16-1.45-0.36-2.16-0.59c-0.38-0.12-0.75-0.26-1.12-0.4
				c-0.08-0.03-0.13-0.05-0.18-0.07c-0.16-0.07-0.32-0.14-0.47-0.22c-0.72-0.34-1.42-0.72-2.09-1.14c-0.34-0.21-0.67-0.43-0.99-0.66
				c-0.15-0.1-0.29-0.21-0.44-0.32c-0.04-0.03-0.08-0.07-0.14-0.11c-1.22-0.99-3.08-1.29-4.26,0c-1.01,1.1-1.31,3.2,0,4.26
				c4.59,3.7,10.3,5.8,16.23,5.66c5.71-0.14,11.09-2.37,15.4-6.08c2.3-1.99,4.24-4.49,5.61-7.2
				C290.91,316.99,290.62,315.07,289.12,314.28z"/>
		</g>
		<g>
			<path class="st0" d="M250.11,385.44c-4.96,0-9.89-0.77-14.67-2.3c-10.4-3.33-20.32-9.69-29.5-18.9
				c-8.2-8.23-14.89-17.93-21.36-27.31l-2.13-3.08c-3.73-5.4-7.42-10.66-11.53-15.71l-0.69-0.85c-1.73-2.15-3.52-4.38-5.74-5.65
				c-0.9-0.51-1.83-0.77-2.85-0.77c-1.39,0-2.83,0.46-4.18,0.96c-4.97,1.83-9.52,3.36-14.88,3.47c-0.28,0.01-0.55,0.01-0.83,0.01
				c-4.63,0-9.44-0.9-13.91-2.59c-9.2-3.49-17.25-9.9-22.66-18.06c-11.28-17.03-8.08-40.46,7.8-56.97
				c9.48-9.87,23.65-16.24,36.09-16.24c1.85,0,3.66,0.14,5.4,0.42c13.75-16.54,31.29-32.13,52.14-46.35
				c10.16-6.94,20.9-13.22,31.91-18.67c9.04-4.48,18.5-8.37,27.64-12.14c1.93-0.79,3.86-1.59,5.79-2.39
				c22.41-9.33,45.27-20.12,56.98-40.34c5.88-10.16,7.24-21.01,3.83-30.55c-3.7-10.31-12.43-17.46-19.11-21.64
				c-0.82-0.51-1.64-1-2.47-1.47c-11.56-6.61-25.94-10.53-41.56-11.34c-2.09-0.11-4.22-0.17-6.34-0.17c-5.24,0-10.57,0.34-15.85,1
				c-45.67,5.74-85.07,39.47-98.06,83.92c-0.57,1.97-2.36,3.3-4.44,3.3c-0.37,0-0.74-0.04-1.1-0.13
				c-9.21-2.16-18.57-3.26-27.82-3.26c-7.07,0-14.07,0.65-20.8,1.92c-30.14,5.7-53.65,23.58-62.89,47.83
				c-8.18,21.5-7.39,51.56,12.82,70.26c0.98,0.9,1.47,2.19,1.35,3.54c-0.13,1.47-0.95,2.82-2.19,3.6
				c-9.39,5.95-17.42,14.27-23.24,24.07c-2.07,3.49-3.86,7.16-5.31,10.9c-1.18,3.05-2.15,6.11-2.87,9.09
				c-0.41,1.66-0.76,3.35-1.04,5.04l-2.45,0.11l-3.55-13.6l0.12-0.35c0.73-2.19,1.61-4.46,2.63-6.77c0.81-1.83,1.7-3.65,2.64-5.41
				c5.79-10.91,13.97-20.44,23.71-27.65c-9.12-10.16-14.74-23.36-16.29-38.27c-0.78-7.51-0.44-15.23,1.01-22.95
				c1.25-6.62,3.29-13.1,6.07-19.29c2.43-5.41,5.56-10.59,9.31-15.4c5.3-6.81,11.81-12.87,19.36-18
				c17.07-11.6,38.34-17.73,61.49-17.73c8.67,0,17.41,0.87,26.01,2.6c2.87-8.73,6.66-17.11,11.27-24.92
				c11.12-18.8,26.76-34.45,45.22-45.26c10.51-6.15,21.97-10.74,34.07-13.63c9.85-2.38,19.97-3.59,30.08-3.59
				c1.38,0,2.76,0.02,4.13,0.07c5.31,0.17,10.54,0.65,15.53,1.41c9.13,1.39,17.61,3.76,25.2,7.03c7.59,3.26,14.35,7.47,20.09,12.52
				c2.52,2.21,4.82,4.65,6.83,7.23c4.28,5.43,7.13,11.29,8.48,17.4c2.27,10.34,0.3,21.83-5.56,32.35
				c-1.99,3.57-4.37,7.02-7.08,10.24c-2.4,2.88-5.14,5.69-8.14,8.33c-12,10.63-26.98,17.85-38.69,22.96
				c-4.67,2.04-9.46,4-14.09,5.91c-6.15,2.53-12.5,5.14-18.64,7.93c-10.48,4.78-20.77,10.32-30.59,16.47
				c-19.96,12.5-38.14,27.65-54.04,45.03c-0.71,0.77-1.43,1.56-2.15,2.36c3.46,1.89,6.49,4.51,9.02,7.8
				c6.6,8.59,9.27,20.85,6.8,31.22c-2.04,8.57-8.9,14.33-17.07,14.33c-1.68,0-3.39-0.24-5.09-0.72
				c-9.12-2.55-16.42-10.53-17.75-19.38c-1.3-8.7,1.36-17.8,8.12-27.77c-7.38,0.21-15.56,3.26-22.59,8.44
				c-7.87,5.81-13.84,14.29-16.39,23.26c-2.61,9.19-1.49,18.52,3.14,26.27c4.52,7.57,11.86,13.45,20.12,16.16
				c3.29,1.07,6.59,1.62,9.82,1.62c0.88,0,1.76-0.04,2.63-0.12c2.61-0.24,5.03-1.14,7.58-2.09c2.4-0.89,4.87-1.8,7.54-2.15
				c0.61-0.08,1.22-0.12,1.83-0.12c4.78,0,9.19,2.35,13.49,7.19c4.2,4.73,7.97,9.93,11.16,14.43c1.82,2.55,3.62,5.17,5.44,7.8
				c11.76,17.02,23.92,34.63,43.46,42.23c5.02,1.95,10.16,2.94,15.27,2.94c5.68,0,11.22-1.22,16.47-3.62
				c10.89-4.98,19.89-13.35,27.46-20.79c16.96-16.68,31.53-35.67,43.33-56.45c10.66-18.77,22.88-43.58,22.71-68.98
				c-0.13-18.51-9.43-40.73-29.89-48.63c-3.77-1.45-7.69-2.19-11.65-2.19c-14.69,0-28.57,10.02-34.54,24.93
				c-3.87,9.68-4.24,21.4-1.05,32.99c1.5,5.42,3.73,10.72,6.63,15.76c0.55,0.94,1.12,1.89,1.69,2.83c2.55,4.21,5.19,8.56,5.91,13.72
				c1.58,11.45-7.42,20.2-16.46,23.49c-3.06,1.11-6.38,1.67-9.87,1.67c-9.41,0-18.71-3.95-26.92-7.44c-1.88-0.79-2.8-2.47-2.42-4.39
				c0.4-1.97,2.31-4,4.83-4c0.64,0,1.27,0.13,1.89,0.39c6.57,2.79,14.75,6.27,22.49,6.26c4.33,0,8.03-1.07,11.34-3.26
				c4.14-2.76,6.47-6.75,6.23-10.67c-0.26-4.11-2.7-7.96-5.06-11.69c-0.92-1.45-1.87-2.94-2.66-4.42
				c-6.15-11.47-9.21-23.76-8.85-35.55c0.72-23.48,16.36-44,37.18-48.81c2.96-0.68,5.99-1.03,9.01-1.03
				c16.9,0,33.95,11.1,43.45,28.28c13.18,23.81,7.16,52.18-0.21,71.79c-8.4,22.36-20.89,44.33-37.14,65.3
				c-7.69,9.92-16.07,19.29-24.92,27.87c-8.52,8.26-17.97,16.58-29.41,21.55C263.53,384.03,256.86,385.44,250.11,385.44z
				 M157.72,232.16c-5.5,7.05-8.39,13.21-9.08,19.3c-0.94,8.38,4.26,15.96,12.11,17.62c0.76,0.16,1.49,0.24,2.16,0.24
				c2.12,0,3.82-0.76,5.19-2.32c2.99-3.4,3.68-9.89,3.04-14.81C170.17,244.79,166.14,235.78,157.72,232.16z"/>
		</g>
		<g>
			<path class="st0" d="M157.32,230.64c8.77,3.28,13.87,12.18,15.07,21.39c1.03,7.94-1.19,20.55-11.9,18.28
				c-8.85-1.88-14.07-10.31-13.1-18.99C148.26,243.62,152.41,236.78,157.32,230.64z M10.61,297.67c0.29-1.72,0.64-3.43,1.06-5.13
				c0.76-3.14,1.75-6.22,2.92-9.25c1.49-3.82,3.29-7.52,5.4-11.09c5.86-9.88,13.92-18.33,23.64-24.49c1.72-1.09,2.28-3.67,0.66-5.16
				c-19.55-18.09-22.27-47.65-13.14-71.63c10.29-27.01,36.28-43.41,63.83-48.62c16.21-3.07,33.1-2.42,49.14,1.35
				c1.75,0.41,3.53-0.54,4.05-2.3c13.14-44.99,52.53-78.95,99.11-84.81c7.29-0.92,14.86-1.25,22.42-0.85
				c14.75,0.76,29.48,4.28,42.12,11.51c0.85,0.48,1.68,0.98,2.51,1.5c8.43,5.27,16.2,12.73,19.63,22.28
				c3.82,10.68,1.66,21.97-3.93,31.61c-12.21,21.08-36.04,31.9-57.59,40.87c-11.2,4.65-22.48,9.11-33.35,14.49
				c-11,5.45-21.62,11.66-31.76,18.58c-19.18,13.08-37.51,28.69-52.35,46.67c-14.34-2.63-31.18,5.03-41.08,15.34
				c-14.15,14.71-19.41,37.66-7.66,55.41c5.31,8.01,13.08,14.18,22.05,17.58c4.51,1.71,9.43,2.61,14.27,2.5
				c5.18-0.11,9.67-1.63,14.47-3.4c2.78-1.02,5.38-1.65,8.08-0.1c2.74,1.57,4.82,4.39,6.78,6.8c4.12,5.06,7.88,10.42,11.59,15.78
				c7.24,10.45,14.34,21.19,23.35,30.22c8.14,8.17,17.94,15.05,28.99,18.59c11.18,3.57,22.87,2.81,33.61-1.85
				c11.1-4.82,20.44-12.96,29.04-21.3c8.91-8.64,17.19-17.92,24.8-27.74c15.25-19.69,28.18-41.61,36.95-64.97
				c8.42-22.4,12.39-48.87,0.29-70.74c-9.92-17.94-30.02-31.49-51.07-26.63c-21.64,4.99-35.55,26.24-36.21,47.62
				c-0.37,12.13,2.99,24.27,8.7,34.92c2.79,5.2,7.49,10.49,7.87,16.62c0.3,4.9-2.86,9.18-6.79,11.79
				c-10.85,7.21-24.28,1.66-35.01-2.89c-3.86-1.64-7.22,4.04-3.32,5.68c10.99,4.67,23.88,10.09,35.87,5.74
				c9.2-3.35,17.08-11.78,15.64-22.14c-0.84-6.02-4.47-10.96-7.44-16.09c-2.91-5.05-5.2-10.43-6.75-16.05
				c-3.03-11.02-3.19-23.07,1.1-33.79c7.51-18.76,28.15-31.02,47.81-23.44c20.03,7.73,30.55,29.34,30.69,49.79
				c0.17,24.65-10.94,48.6-22.87,69.61c-11.81,20.81-26.48,39.94-43.54,56.72c-8.29,8.15-17.14,16.16-27.82,21.04
				c-10.53,4.82-21.97,4.88-32.71,0.71c-22.97-8.93-35.9-31.4-49.47-50.47c-3.49-4.91-7.08-9.82-11.08-14.32
				c-3.71-4.18-8.39-7.4-14.21-6.66c-5.26,0.68-9.82,3.74-15.17,4.24c-4.4,0.41-8.77-0.19-12.96-1.55
				c-8.59-2.81-16.18-8.96-20.81-16.71c-4.95-8.28-5.9-18.03-3.27-27.26c2.71-9.52,8.91-18.05,16.85-23.92
				c7.15-5.27,16.61-9.15,25.73-8.65c-6.07,8.39-10.85,18.23-9.27,28.81c1.29,8.64,8.54,16.04,16.84,18.36
				c9.67,2.72,18.31-3.07,20.59-12.7c2.4-10.11-0.27-21.95-6.58-30.16c-2.89-3.76-6.32-6.43-10.05-8.19
				c1.09-1.22,2.19-2.42,3.26-3.58c15.96-17.45,34.27-32.7,54.3-45.25c9.87-6.19,20.14-11.72,30.73-16.55
				c10.79-4.91,21.89-9.12,32.75-13.85c13.43-5.86,27.24-12.91,38.36-22.75c2.87-2.53,5.56-5.26,8.01-8.19
				c2.6-3.1,4.94-6.44,6.95-10.05c5.33-9.57,7.81-20.64,5.43-31.47c-1.37-6.2-4.32-11.92-8.24-16.9c-1.99-2.56-4.24-4.93-6.67-7.06
				c-5.9-5.18-12.59-9.23-19.76-12.31c-7.9-3.4-16.34-5.64-24.89-6.94c-5.13-0.78-10.3-1.23-15.38-1.4
				c-11.37-0.37-22.81,0.81-33.89,3.49c-11.82,2.83-23.24,7.36-33.73,13.5c-18.42,10.78-33.92,26.46-44.78,44.81
				c-4.79,8.11-8.64,16.76-11.51,25.74c-29.52-6.19-62.34-2.47-87.64,14.71c-7.26,4.94-13.75,10.88-19.08,17.74
				c-3.62,4.64-6.71,9.69-9.15,15.14c-2.73,6.06-4.74,12.45-5.98,19c-1.4,7.43-1.78,15.05-1,22.58
				c1.49,14.35,7.03,28.09,16.92,38.59c-10.22,7.28-18.61,16.99-24.48,28.05c-0.93,1.75-1.8,3.53-2.6,5.33
				c-0.96,2.18-1.83,4.4-2.59,6.66L10.61,297.67z"/>
		</g>
	</g>
	<g>
		<g>
			<path class="st0" d="M458.52,283.78c-0.78-2.28-1.67-4.56-2.66-6.78c-0.77-1.74-1.65-3.54-2.62-5.36
				c-5.78-10.85-13.93-20.33-23.65-27.52c9.12-10.16,14.74-23.37,16.29-38.28c0.75-7.28,0.45-14.73-0.87-22.12
				c-1.22-6.89-3.31-13.66-6.21-20.11c-2.55-5.66-5.85-11.06-9.82-16.04c-5.2-6.56-11.54-12.4-18.85-17.36
				c-17.08-11.6-38.34-17.73-61.49-17.73c-6.51,0-13.12,0.5-19.64,1.48c-2.1,0.32-4.24,0.69-6.38,1.12l-0.24-0.71l-0.11-0.34
				c-0.95,1.01-2,1.93-3.11,2.77c-0.66,1.83-1.41,3.78-2.34,6l-0.44,1.05l1.01,0.54c0.68,0.36,1.44,0.55,2.2,0.55
				c0.37,0,0.74-0.04,1.11-0.13c0.22-0.06,0.44-0.1,0.76-0.17c8.97-2.05,18.07-3.08,27.06-3.08c7.06,0,14.06,0.65,20.79,1.92
				c30.15,5.71,53.66,23.59,62.89,47.83c8.18,21.5,7.38,51.56-12.82,70.26c-0.97,0.9-1.46,2.19-1.34,3.54
				c0.13,1.47,0.95,2.82,2.19,3.61c9.39,5.94,17.42,14.26,23.23,24.07c2.03,3.43,3.8,7.05,5.26,10.76c1.18,3.02,2.14,6.05,2.87,9.02
				c0.42,1.69,0.78,3.39,1.06,5.05l2.46,0.11l3.55-13.58L458.52,283.78z"/>
		</g>
		<g>
			<path class="st0" d="M454.71,277.51c-0.79-1.79-1.66-3.54-2.58-5.27c-5.86-11-14.23-20.67-24.42-27.92
				c9.89-10.51,15.43-24.25,16.92-38.6c0.74-7.26,0.43-14.6-0.86-21.77c-1.21-6.83-3.28-13.51-6.12-19.81
				c-2.56-5.69-5.82-10.97-9.65-15.78c-5.23-6.59-11.53-12.32-18.57-17.11c-23.2-15.76-52.72-20.19-80.23-16.04
				c-2.48,0.37-4.96,0.82-7.4,1.33c-0.16-0.51-0.34-1.01-0.51-1.51c-0.09,0.08-0.18,0.16-0.27,0.24c-0.89,2.67-1.91,5.31-3.03,8.01
				c0.72,0.38,1.57,0.51,2.42,0.31c0.26-0.07,0.52-0.12,0.78-0.18c15.81-3.61,32.41-4.19,48.36-1.17
				c27.54,5.22,53.55,21.62,63.83,48.62c9.12,23.99,6.41,53.54-13.14,71.63c-1.61,1.49-1.06,4.07,0.66,5.17
				c9.72,6.15,17.78,14.6,23.64,24.49c2.08,3.52,3.87,7.18,5.35,10.95c1.17,3,2.16,6.06,2.92,9.17c0.43,1.7,0.79,3.42,1.08,5.15
				l3.45-13.22C456.56,281.92,455.69,279.69,454.71,277.51z"/>
		</g>
	</g>
	<g>
		<g>
			<path class="st0" d="M232.22,464.43c-62.03,0-120.34-24.16-164.2-68.02c-10.78-10.78-20.5-22.58-28.88-35.06
				c-1.17-1.74-2.35-3.56-3.6-5.55c-1.78-2.8-3.55-5.75-5.41-9.01c-4.72-8.28-8.96-16.96-12.62-25.8
				c-3.12-7.56-5.85-15.29-8.1-22.97l-0.13-0.44c-1.25-4.27-2.38-8.61-3.35-12.87c-1.04-4.51-1.96-9.16-2.73-13.81
				C1.08,258.25,0,245.23,0,232.22c0-62.03,24.16-120.34,68.02-164.2C111.88,24.16,170.19,0,232.22,0c16.91,0,33.75,1.81,50.07,5.39
				c8.46,1.84,16.88,4.19,25.03,6.98c33.63,11.44,63.61,30.17,89.1,55.65c43.86,43.86,68.02,102.18,68.02,164.2
				c0,12.9-1.06,25.8-3.14,38.36c-0.77,4.69-1.68,9.31-2.7,13.75v0.35l-0.11,0.13c-0.92,4.02-1.98,8.1-3.15,12.13
				c-0.07,0.27-0.16,0.56-0.25,0.84c-2.28,7.87-5.08,15.81-8.32,23.59c-3.6,8.66-7.79,17.22-12.46,25.44
				c-1.73,3.03-3.53,6.02-5.34,8.9c-1.25,1.99-2.43,3.81-3.6,5.55c-8.41,12.54-18.15,24.37-28.95,35.17
				C352.55,440.28,294.24,464.43,232.22,464.43z M232.22,9.95c-81.21,0-155.97,44.39-195.09,115.86
				c-5.94,10.82-11,22.25-15.05,33.95c-8.05,23.25-12.13,47.63-12.13,72.46c0,7.19,0.35,14.45,1.04,21.57
				c0.48,4.96,1.13,9.9,1.92,14.69c0.2,1.25,0.43,2.5,0.66,3.74c0.66,3.65,1.42,7.28,2.25,10.79c4.94,21.05,12.93,41.21,23.74,59.94
				c2.72,4.72,5.66,9.41,8.74,13.94c41.56,61.1,110.31,97.58,183.92,97.58c73.65,0,142.43-36.52,183.99-97.68
				c3.08-4.55,6.01-9.22,8.68-13.86c10.75-18.64,18.7-38.65,23.62-59.48l0.15-0.66c0.81-3.42,1.56-7.05,2.24-10.78
				c0.24-1.27,0.45-2.54,0.66-3.81c0.81-4.93,1.45-9.86,1.9-14.68c0.68-7.01,1.02-14.18,1.02-21.3c0-24.56-4-48.7-11.88-71.74
				c-4.16-12.19-9.44-24.09-15.69-35.39c-21.66-39.24-54.22-70.72-94.14-91.05c-6.89-3.53-14.09-6.73-21.4-9.52
				c-13.54-5.18-27.63-9.03-41.88-11.44c-12.09-2.05-24.45-3.1-36.74-3.12c-0.2-0.01-0.34-0.01-0.48-0.01
				C232.25,9.95,232.24,9.95,232.22,9.95z"/>
		</g>
		<g>
			<path class="st0" d="M395.52,68.91c-25.37-25.37-55.61-44.13-88.61-55.35c-8.14-2.78-16.45-5.1-24.89-6.94
				c-16.17-3.54-32.84-5.36-49.8-5.36c-61.7,0-119.69,24.03-163.31,67.65C25.28,112.53,1.26,170.52,1.26,232.22
				c0,13.02,1.07,25.89,3.18,38.48c0.76,4.62,1.66,9.2,2.72,13.74c0.99,4.32,2.1,8.59,3.34,12.82c0.04,0.14,0.08,0.28,0.12,0.42
				c2.28,7.77,4.98,15.38,8.06,22.84c3.64,8.79,7.82,17.36,12.55,25.65c1.72,3.02,3.51,6.02,5.39,8.97
				c1.16,1.85,2.35,3.69,3.58,5.52c8.32,12.4,17.92,24.07,28.72,34.87c43.62,43.62,101.62,67.65,163.31,67.65
				c61.69,0,119.68-24.03,163.31-67.65c10.83-10.83,20.45-22.55,28.8-34.98c1.23-1.82,2.42-3.66,3.58-5.52
				c1.84-2.91,3.61-5.86,5.31-8.85c4.65-8.19,8.79-16.63,12.39-25.3c3.19-7.66,5.96-15.49,8.28-23.48c0.08-0.27,0.17-0.55,0.24-0.82
				c1.18-4.08,2.25-8.2,3.2-12.36c0.01-0.01,0.01-0.02,0.01-0.04c1.05-4.56,1.95-9.17,2.72-13.81c2.07-12.49,3.13-25.24,3.13-38.15
				C463.17,170.52,439.15,112.53,395.52,68.91z M425.98,343.56c-2.74,4.76-5.66,9.41-8.73,13.94
				c-40.25,59.24-108.17,98.23-185.02,98.23c-76.81,0-144.7-38.94-184.96-98.13c-3.1-4.56-6.03-9.23-8.79-14.02
				c-10.72-18.58-18.84-38.84-23.88-60.28c-0.85-3.58-1.6-7.21-2.26-10.85c-0.23-1.26-0.46-2.51-0.66-3.77
				c-0.81-4.87-1.45-9.79-1.93-14.77c-0.69-7.13-1.04-14.37-1.04-21.69c0-25.5,4.29-50.02,12.19-72.87
				c4.1-11.87,9.17-23.28,15.13-34.15C74,55.84,147.71,8.7,232.22,8.7c0.18,0,0.35,0,0.53,0.01c12.58,0.02,24.93,1.1,36.95,3.13
				c14.57,2.46,28.65,6.35,42.12,11.51c7.37,2.81,14.55,6,21.52,9.57c39.97,20.35,73.04,52.38,94.67,91.56
				c6.25,11.3,11.54,23.2,15.78,35.59c7.75,22.64,11.95,46.92,11.95,72.15c0,7.23-0.34,14.37-1.02,21.42
				c-0.47,4.97-1.11,9.88-1.91,14.74c-0.21,1.28-0.43,2.57-0.67,3.85c-0.66,3.65-1.4,7.26-2.25,10.85c0.01,0.01,0,0.01,0,0.01
				C444.87,304.6,436.73,324.92,425.98,343.56z"/>
		</g>
	</g>
</g>
</svg>
